<svg xmlns="http://www.w3.org/2000/svg" xmlns:xlink="http://www.w3.org/1999/xlink" width="100" zoomAndPan="magnify" viewBox="0 0 75 74.999997" height="100" preserveAspectRatio="xMidYMid meet" version="1.0"><defs><g/><clipPath id="49c7dea626"><path d="M 10 22.820312 L 21.347656 22.820312 L 21.347656 33 L 10 33 Z M 10 22.820312 " clip-rule="nonzero"/></clipPath><clipPath id="fcdc13ce9a"><path d="M 10 49 L 21.347656 49 L 21.347656 59.753906 L 10 59.753906 Z M 10 49 " clip-rule="nonzero"/></clipPath><clipPath id="9017a2072d"><path d="M 2.199219 26 L 21 26 L 21 56 L 2.199219 56 Z M 2.199219 26 " clip-rule="nonzero"/></clipPath><clipPath id="b098fbae0a"><path d="M 16.675781 36.109375 L 27.03125 36.109375 L 27.03125 46.46875 L 16.675781 46.46875 Z M 16.675781 36.109375 " clip-rule="nonzero"/></clipPath></defs><rect x="-7.5" width="90" fill="#ffffff" y="-7.5" height="89.999996" fill-opacity="1"/><rect x="-7.5" width="90" fill="#000000" y="-7.5" height="89.999996" fill-opacity="1"/><g clip-path="url(#49c7dea626)"><path fill="#1ed7fe" d="M 21.304688 23.804688 C 21.304688 23.574219 21.230469 23.375 21.078125 23.203125 C 20.929688 23.027344 20.742188 22.925781 20.515625 22.894531 C 20.289062 22.863281 20.078125 22.90625 19.886719 23.03125 C 19.691406 23.15625 19.566406 23.328125 19.5 23.546875 C 19.4375 23.765625 19.453125 23.980469 19.546875 24.1875 C 19.644531 24.398438 19.796875 24.550781 20.003906 24.644531 L 20.003906 30.292969 C 18.59375 30.582031 17.285156 31.125 16.085938 31.917969 L 15.386719 31.222656 L 12.066406 27.898438 C 12.113281 27.765625 12.132812 27.628906 12.121094 27.488281 C 12.105469 27.347656 12.0625 27.21875 11.988281 27.097656 C 11.914062 26.976562 11.820312 26.878906 11.699219 26.804688 C 11.582031 26.726562 11.453125 26.683594 11.3125 26.664062 C 11.171875 26.648438 11.035156 26.664062 10.902344 26.710938 C 10.769531 26.757812 10.652344 26.828125 10.554688 26.929688 C 10.457031 27.027344 10.382812 27.144531 10.335938 27.277344 C 10.292969 27.410156 10.277344 27.546875 10.292969 27.6875 C 10.3125 27.828125 10.359375 27.957031 10.433594 28.074219 C 10.511719 28.195312 10.609375 28.289062 10.730469 28.363281 C 10.851562 28.4375 10.980469 28.480469 11.121094 28.492188 C 11.261719 28.503906 11.398438 28.484375 11.527344 28.4375 L 11.71875 28.628906 L 15.457031 32.363281 L 16.011719 32.925781 C 17.394531 31.890625 18.941406 31.238281 20.652344 30.972656 L 20.78125 30.972656 L 20.78125 24.714844 C 21.113281 24.503906 21.289062 24.199219 21.304688 23.804688 Z M 11.746094 27.574219 C 11.746094 27.726562 11.691406 27.851562 11.585938 27.957031 C 11.480469 28.0625 11.355469 28.117188 11.207031 28.117188 C 11.054688 28.117188 10.929688 28.0625 10.824219 27.957031 C 10.71875 27.851562 10.667969 27.726562 10.667969 27.574219 C 10.667969 27.425781 10.71875 27.300781 10.824219 27.195312 C 10.929688 27.089844 11.054688 27.035156 11.203125 27.035156 C 11.355469 27.035156 11.480469 27.089844 11.585938 27.191406 C 11.691406 27.300781 11.746094 27.425781 11.746094 27.574219 Z M 20.921875 23.804688 C 20.925781 23.953125 20.871094 24.082031 20.765625 24.1875 C 20.660156 24.289062 20.53125 24.339844 20.382812 24.339844 C 20.238281 24.339844 20.109375 24.289062 20.003906 24.1875 C 19.898438 24.082031 19.847656 23.953125 19.847656 23.804688 C 19.828125 23.644531 19.871094 23.5 19.976562 23.378906 C 20.085938 23.257812 20.21875 23.195312 20.382812 23.195312 C 20.542969 23.195312 20.679688 23.257812 20.785156 23.378906 C 20.894531 23.5 20.9375 23.644531 20.917969 23.804688 Z M 20.921875 23.804688 " fill-opacity="1" fill-rule="nonzero"/></g><g clip-path="url(#fcdc13ce9a)"><path fill="#1ed7fe" d="M 10.578125 54.371094 C 10.414062 54.53125 10.324219 54.726562 10.308594 54.957031 C 10.292969 55.183594 10.351562 55.390625 10.488281 55.574219 C 10.625 55.757812 10.808594 55.875 11.03125 55.921875 C 11.253906 55.972656 11.46875 55.941406 11.667969 55.828125 C 11.871094 55.71875 12.011719 55.558594 12.089844 55.339844 C 12.167969 55.125 12.167969 54.910156 12.085938 54.695312 L 15.390625 51.394531 L 16.085938 50.714844 C 17.289062 51.507812 18.59375 52.046875 20.003906 52.339844 L 20.003906 58.019531 C 19.875 58.078125 19.765625 58.160156 19.675781 58.269531 C 19.585938 58.378906 19.523438 58.503906 19.488281 58.640625 C 19.457031 58.777344 19.453125 58.914062 19.484375 59.050781 C 19.515625 59.191406 19.574219 59.316406 19.660156 59.425781 C 19.746094 59.535156 19.855469 59.625 19.980469 59.683594 C 20.109375 59.746094 20.242188 59.777344 20.382812 59.777344 C 20.527344 59.777344 20.660156 59.746094 20.785156 59.683594 C 20.914062 59.625 21.019531 59.535156 21.109375 59.425781 C 21.195312 59.316406 21.253906 59.191406 21.285156 59.050781 C 21.3125 58.914062 21.3125 58.777344 21.277344 58.640625 C 21.246094 58.503906 21.183594 58.378906 21.09375 58.269531 C 21.003906 58.160156 20.894531 58.078125 20.765625 58.019531 L 20.765625 51.667969 L 20.753906 51.667969 C 19.035156 51.414062 17.476562 50.769531 16.078125 49.738281 L 16.011719 49.671875 L 15.453125 50.230469 L 11.710938 53.988281 L 11.59375 54.105469 C 11.210938 54.015625 10.871094 54.105469 10.578125 54.371094 Z M 19.996094 58.464844 C 20.101562 58.359375 20.230469 58.308594 20.378906 58.308594 C 20.527344 58.308594 20.652344 58.359375 20.757812 58.464844 C 20.824219 58.527344 20.871094 58.601562 20.898438 58.6875 C 20.925781 58.773438 20.933594 58.863281 20.917969 58.953125 C 20.902344 59.042969 20.863281 59.121094 20.808594 59.191406 C 20.75 59.265625 20.679688 59.316406 20.59375 59.351562 C 20.511719 59.386719 20.425781 59.402344 20.332031 59.390625 C 20.242188 59.382812 20.160156 59.351562 20.085938 59.300781 C 20.007812 59.25 19.949219 59.183594 19.910156 59.105469 C 19.867188 59.023438 19.847656 58.9375 19.847656 58.847656 C 19.847656 58.699219 19.898438 58.570312 20.003906 58.464844 Z M 10.847656 54.640625 C 10.953125 54.535156 11.078125 54.480469 11.230469 54.480469 C 11.378906 54.480469 11.503906 54.535156 11.609375 54.640625 C 11.714844 54.746094 11.765625 54.871094 11.765625 55.019531 C 11.765625 55.167969 11.714844 55.296875 11.609375 55.402344 C 11.503906 55.507812 11.375 55.5625 11.226562 55.5625 C 11.078125 55.5625 10.949219 55.507812 10.84375 55.402344 C 10.738281 55.296875 10.6875 55.167969 10.6875 55.019531 C 10.6875 54.871094 10.742188 54.746094 10.847656 54.640625 Z M 10.847656 54.640625 " fill-opacity="1" fill-rule="nonzero"/></g><path fill="#1ed7fe" d="M 3.847656 43.199219 C 3.847656 43.414062 3.917969 43.605469 4.050781 43.777344 C 4.1875 43.945312 4.363281 44.050781 4.574219 44.097656 C 4.785156 44.140625 4.988281 44.117188 5.179688 44.019531 C 5.375 43.921875 5.515625 43.773438 5.605469 43.578125 L 11.253906 43.578125 C 11.542969 44.992188 12.085938 46.300781 12.882812 47.503906 L 12.183594 48.199219 L 8.859375 51.515625 C 8.726562 51.464844 8.589844 51.449219 8.449219 51.460938 C 8.3125 51.472656 8.179688 51.519531 8.058594 51.589844 C 7.941406 51.664062 7.84375 51.761719 7.765625 51.878906 C 7.691406 52 7.644531 52.128906 7.628906 52.265625 C 7.609375 52.40625 7.625 52.542969 7.671875 52.675781 C 7.71875 52.808594 7.792969 52.925781 7.890625 53.027344 C 7.992188 53.125 8.109375 53.199219 8.242188 53.242188 C 8.375 53.289062 8.511719 53.304688 8.652344 53.285156 C 8.789062 53.269531 8.917969 53.222656 9.039062 53.144531 C 9.15625 53.070312 9.25 52.972656 9.324219 52.851562 C 9.398438 52.730469 9.441406 52.601562 9.453125 52.460938 C 9.46875 52.320312 9.449219 52.183594 9.398438 52.050781 L 9.585938 51.863281 L 13.328125 48.125 L 13.890625 47.566406 L 13.878906 47.566406 C 12.847656 46.183594 12.199219 44.644531 11.933594 42.941406 L 11.933594 42.792969 L 11.121094 42.792969 L 5.835938 42.804688 L 5.671875 42.804688 C 5.464844 42.472656 5.160156 42.292969 4.765625 42.277344 C 4.511719 42.277344 4.296875 42.367188 4.117188 42.546875 C 3.9375 42.726562 3.847656 42.945312 3.847656 43.199219 Z M 9.078125 52.375 C 9.078125 52.523438 9.027344 52.652344 8.917969 52.753906 C 8.8125 52.847656 8.6875 52.894531 8.546875 52.890625 C 8.40625 52.882812 8.285156 52.832031 8.183594 52.734375 C 8.082031 52.632812 8.03125 52.511719 8.023438 52.371094 C 8.019531 52.230469 8.0625 52.105469 8.15625 51.996094 C 8.261719 51.894531 8.390625 51.84375 8.539062 51.84375 C 8.6875 51.84375 8.8125 51.894531 8.917969 51.996094 C 9.023438 52.101562 9.078125 52.226562 9.078125 52.375 Z M 4.226562 43.199219 C 4.226562 42.957031 4.335938 42.789062 4.558594 42.695312 C 4.78125 42.605469 4.980469 42.644531 5.148438 42.816406 C 5.253906 42.921875 5.304688 43.046875 5.304688 43.195312 C 5.304688 43.34375 5.253906 43.46875 5.148438 43.578125 C 4.980469 43.746094 4.785156 43.789062 4.5625 43.695312 C 4.339844 43.605469 4.226562 43.4375 4.226562 43.199219 Z M 4.226562 43.199219 " fill-opacity="1" fill-rule="nonzero"/><g clip-path="url(#9017a2072d)"><path fill="#bbf2fa" d="M 2.199219 41.296875 C 2.199219 41.511719 2.269531 41.703125 2.402344 41.871094 C 2.539062 42.039062 2.714844 42.144531 2.925781 42.191406 C 3.136719 42.234375 3.335938 42.210938 3.53125 42.113281 C 3.722656 42.015625 3.867188 41.871094 3.957031 41.675781 L 14.660156 41.675781 C 14.75 43.488281 15.40625 45.066406 16.636719 46.40625 L 14.066406 48.976562 L 10.371094 52.640625 L 9.046875 53.980469 C 8.914062 53.929688 8.777344 53.910156 8.636719 53.925781 C 8.496094 53.9375 8.367188 53.980469 8.246094 54.054688 C 8.121094 54.125 8.023438 54.222656 7.945312 54.339844 C 7.871094 54.460938 7.824219 54.589844 7.804688 54.730469 C 7.789062 54.871094 7.800781 55.007812 7.847656 55.140625 C 7.894531 55.277344 7.96875 55.394531 8.066406 55.492188 C 8.167969 55.59375 8.285156 55.667969 8.417969 55.714844 C 8.550781 55.761719 8.6875 55.777344 8.828125 55.757812 C 8.96875 55.742188 9.101562 55.695312 9.21875 55.621094 C 9.339844 55.542969 9.433594 55.445312 9.507812 55.324219 C 9.582031 55.203125 9.625 55.070312 9.640625 54.929688 C 9.652344 54.789062 9.636719 54.652344 9.585938 54.519531 L 10.921875 53.1875 L 14.597656 49.519531 L 17.167969 46.949219 C 18.199219 47.882812 19.398438 48.484375 20.761719 48.75 L 20.761719 47.839844 C 20.019531 47.675781 19.324219 47.390625 18.679688 46.988281 C 18.03125 46.585938 17.472656 46.085938 16.996094 45.492188 C 16.519531 44.898438 16.15625 44.242188 15.902344 43.523438 C 15.652344 42.804688 15.527344 42.066406 15.527344 41.304688 C 15.527344 40.542969 15.652344 39.804688 15.902344 39.085938 C 16.15625 38.367188 16.519531 37.710938 16.996094 37.117188 C 17.472656 36.523438 18.03125 36.023438 18.679688 35.621094 C 19.324219 35.21875 20.019531 34.933594 20.761719 34.769531 L 20.761719 33.847656 C 19.402344 34.113281 18.210938 34.710938 17.183594 35.636719 L 14.613281 33.066406 L 10.933594 29.410156 L 9.601562 28.078125 C 9.648438 27.945312 9.667969 27.808594 9.65625 27.667969 C 9.644531 27.527344 9.601562 27.394531 9.527344 27.273438 C 9.453125 27.152344 9.359375 27.054688 9.238281 26.976562 C 9.121094 26.898438 8.992188 26.851562 8.851562 26.835938 C 8.710938 26.816406 8.570312 26.832031 8.4375 26.878906 C 8.304688 26.921875 8.1875 26.996094 8.085938 27.097656 C 7.984375 27.195312 7.914062 27.3125 7.867188 27.445312 C 7.820312 27.582031 7.804688 27.71875 7.820312 27.859375 C 7.839844 28 7.882812 28.128906 7.960938 28.25 C 8.039062 28.367188 8.136719 28.464844 8.257812 28.539062 C 8.378906 28.613281 8.507812 28.65625 8.648438 28.667969 C 8.792969 28.683594 8.929688 28.664062 9.0625 28.613281 L 10.398438 29.949219 L 14.078125 33.609375 L 16.21875 35.75 L 16.636719 36.179688 C 15.402344 37.519531 14.742188 39.101562 14.648438 40.921875 L 3.945312 40.921875 C 3.855469 40.730469 3.714844 40.585938 3.523438 40.492188 C 3.332031 40.402344 3.132812 40.375 2.925781 40.421875 C 2.71875 40.464844 2.546875 40.570312 2.410156 40.730469 C 2.273438 40.894531 2.203125 41.082031 2.199219 41.296875 Z M 9.277344 27.757812 C 9.277344 27.902344 9.222656 28.03125 9.117188 28.132812 C 9.015625 28.238281 8.886719 28.292969 8.738281 28.292969 C 8.503906 28.289062 8.339844 28.179688 8.25 27.960938 C 8.160156 27.746094 8.195312 27.550781 8.359375 27.382812 C 8.527344 27.214844 8.722656 27.175781 8.945312 27.265625 C 9.167969 27.359375 9.277344 27.523438 9.277344 27.765625 Z M 9.261719 54.839844 C 9.261719 55.082031 9.152344 55.246094 8.929688 55.339844 C 8.707031 55.433594 8.511719 55.394531 8.339844 55.222656 C 8.238281 55.117188 8.1875 54.992188 8.1875 54.84375 C 8.1875 54.695312 8.238281 54.566406 8.339844 54.460938 C 8.445312 54.355469 8.574219 54.300781 8.726562 54.304688 C 8.871094 54.304688 9 54.355469 9.101562 54.460938 C 9.207031 54.566406 9.261719 54.691406 9.261719 54.839844 Z M 2.578125 41.296875 C 2.558594 41.132812 2.601562 40.992188 2.710938 40.871094 C 2.816406 40.75 2.953125 40.6875 3.113281 40.6875 C 3.277344 40.6875 3.410156 40.75 3.519531 40.871094 C 3.625 40.992188 3.667969 41.132812 3.648438 41.296875 C 3.648438 41.445312 3.597656 41.570312 3.492188 41.675781 C 3.320312 41.839844 3.128906 41.875 2.910156 41.785156 C 2.691406 41.695312 2.582031 41.53125 2.578125 41.296875 Z M 2.578125 41.296875 " fill-opacity="1" fill-rule="nonzero"/></g><path fill="#1ed7fe" d="M 12.878906 35.121094 C 12.085938 36.324219 11.542969 37.628906 11.253906 39.042969 L 5.574219 39.042969 C 5.515625 38.910156 5.433594 38.800781 5.324219 38.710938 C 5.214844 38.621094 5.089844 38.558594 4.953125 38.523438 C 4.816406 38.492188 4.675781 38.488281 4.539062 38.519531 C 4.398438 38.550781 4.273438 38.609375 4.164062 38.695312 C 4.050781 38.78125 3.964844 38.890625 3.902344 39.015625 C 3.839844 39.144531 3.808594 39.28125 3.808594 39.421875 C 3.808594 39.5625 3.839844 39.695312 3.902344 39.824219 C 3.964844 39.953125 4.050781 40.058594 4.164062 40.148438 C 4.273438 40.234375 4.398438 40.292969 4.539062 40.324219 C 4.675781 40.351562 4.816406 40.351562 4.953125 40.316406 C 5.089844 40.285156 5.214844 40.222656 5.324219 40.128906 C 5.433594 40.039062 5.515625 39.929688 5.574219 39.800781 L 11.917969 39.800781 L 11.917969 39.796875 C 12.167969 38.078125 12.8125 36.523438 13.84375 35.125 L 13.910156 35.058594 L 13.328125 34.484375 L 9.476562 30.632812 C 9.566406 30.246094 9.476562 29.910156 9.210938 29.617188 C 9.050781 29.453125 8.855469 29.363281 8.625 29.347656 C 8.398438 29.332031 8.191406 29.390625 8.007812 29.527344 C 7.824219 29.667969 7.707031 29.847656 7.660156 30.070312 C 7.609375 30.296875 7.640625 30.507812 7.75 30.707031 C 7.863281 30.910156 8.023438 31.050781 8.238281 31.128906 C 8.453125 31.207031 8.667969 31.207031 8.882812 31.128906 Z M 9.097656 30.265625 C 9.097656 30.414062 9.046875 30.542969 8.941406 30.644531 C 8.882812 30.703125 8.8125 30.746094 8.734375 30.773438 C 8.65625 30.800781 8.574219 30.808594 8.492188 30.796875 C 8.410156 30.785156 8.335938 30.757812 8.265625 30.710938 C 8.195312 30.664062 8.140625 30.605469 8.101562 30.53125 C 8.058594 30.460938 8.035156 30.382812 8.03125 30.296875 C 8.023438 30.214844 8.039062 30.136719 8.070312 30.058594 C 8.101562 29.984375 8.148438 29.917969 8.210938 29.863281 C 8.273438 29.808594 8.347656 29.769531 8.425781 29.75 C 8.507812 29.726562 8.589844 29.726562 8.671875 29.742188 C 8.75 29.757812 8.824219 29.792969 8.890625 29.84375 C 8.957031 29.894531 9.007812 29.957031 9.042969 30.03125 C 9.082031 30.105469 9.097656 30.183594 9.097656 30.265625 Z M 5.273438 39.421875 C 5.273438 39.570312 5.222656 39.695312 5.117188 39.800781 C 5.011719 39.90625 4.886719 39.960938 4.738281 39.960938 C 4.574219 39.980469 4.433594 39.9375 4.3125 39.832031 C 4.191406 39.722656 4.128906 39.589844 4.128906 39.425781 C 4.128906 39.265625 4.191406 39.128906 4.3125 39.023438 C 4.433594 38.914062 4.574219 38.871094 4.738281 38.890625 C 4.882812 38.890625 5.011719 38.945312 5.117188 39.050781 C 5.21875 39.15625 5.273438 39.28125 5.273438 39.429688 Z M 5.273438 39.421875 " fill-opacity="1" fill-rule="nonzero"/><g clip-path="url(#b098fbae0a)"><path fill="#bbf2fa" d="M 22.722656 36.175781 C 22.53125 36.144531 22.335938 36.125 22.136719 36.117188 C 22.058594 36.113281 21.976562 36.109375 21.898438 36.109375 C 20.335938 36.109375 18.933594 36.804688 17.980469 37.898438 C 17.1875 38.804688 16.707031 39.984375 16.699219 41.277344 C 16.679688 44.125 18.984375 46.476562 21.835938 46.511719 C 24.027344 46.539062 25.917969 45.199219 26.707031 43.292969 C 26.960938 42.683594 27.097656 42.011719 27.097656 41.3125 C 27.097656 38.722656 25.199219 36.574219 22.722656 36.175781 Z M 21.554688 46.082031 C 19.171875 45.914062 17.253906 43.964844 17.125 41.578125 C 17.058594 40.386719 17.429688 39.285156 18.09375 38.417969 C 18.097656 38.410156 18.152344 38.421875 18.179688 38.460938 C 18.230469 38.542969 18.105469 38.664062 18.03125 38.875 C 17.949219 39.117188 17.964844 39.386719 18.035156 39.410156 C 18.070312 39.421875 18.125 39.367188 18.144531 39.34375 C 18.1875 39.289062 18.171875 39.25 18.214844 39.183594 C 18.246094 39.125 18.308594 39.066406 18.332031 39.078125 C 18.371094 39.097656 18.273438 39.253906 18.285156 39.492188 C 18.289062 39.613281 18.324219 39.707031 18.351562 39.789062 C 18.394531 39.902344 18.445312 40.042969 18.5625 40.160156 C 18.703125 40.300781 18.78125 40.253906 18.964844 40.425781 C 19.042969 40.5 19.042969 40.519531 19.128906 40.597656 C 19.179688 40.636719 19.273438 40.714844 19.414062 40.78125 C 19.570312 40.855469 19.617188 40.832031 19.664062 40.894531 C 19.722656 40.972656 19.71875 41.101562 19.671875 41.191406 C 19.597656 41.351562 19.441406 41.3125 19.359375 41.46875 C 19.300781 41.589844 19.339844 41.730469 19.351562 41.78125 C 19.367188 41.828125 19.394531 41.925781 19.480469 42.003906 C 19.589844 42.105469 19.667969 42.050781 19.75 42.128906 C 19.839844 42.214844 19.785156 42.304688 19.847656 42.582031 C 19.890625 42.765625 19.910156 42.859375 19.992188 42.9375 C 20.125 43.066406 20.253906 42.992188 20.351562 43.113281 C 20.386719 43.152344 20.40625 43.210938 20.390625 43.546875 C 20.371094 43.949219 20.335938 43.933594 20.359375 44.0625 C 20.386719 44.257812 20.460938 44.253906 20.566406 44.589844 C 20.589844 44.667969 20.625 44.773438 20.652344 44.921875 C 20.703125 45.183594 20.679688 45.289062 20.769531 45.378906 C 20.824219 45.433594 20.921875 45.480469 21.007812 45.457031 C 21.078125 45.441406 21.136719 45.378906 21.257812 45.058594 C 21.402344 44.667969 21.351562 44.652344 21.453125 44.460938 C 21.558594 44.265625 21.632812 44.242188 21.699219 44.042969 C 21.753906 43.878906 21.71875 43.84375 21.773438 43.75 C 21.867188 43.59375 22 43.621094 22.1875 43.464844 C 22.242188 43.421875 22.40625 43.289062 22.472656 43.074219 C 22.546875 42.835938 22.433594 42.726562 22.539062 42.507812 C 22.601562 42.382812 22.652344 42.394531 22.6875 42.285156 C 22.761719 42.058594 22.617188 41.828125 22.585938 41.78125 C 22.449219 41.578125 22.246094 41.507812 22.199219 41.496094 C 21.96875 41.421875 21.882812 41.523438 21.628906 41.425781 C 21.5625 41.398438 21.394531 41.335938 21.382812 41.226562 C 21.367188 41.132812 21.476562 41.082031 21.457031 40.984375 C 21.445312 40.933594 21.394531 40.898438 21.296875 40.835938 C 21.109375 40.714844 21.03125 40.722656 20.957031 40.621094 C 20.90625 40.546875 20.9375 40.527344 20.890625 40.472656 C 20.78125 40.339844 20.519531 40.359375 20.355469 40.402344 C 20.175781 40.453125 20.101562 40.539062 19.972656 40.5 C 19.917969 40.484375 19.90625 40.464844 19.875 40.445312 C 19.875 40.445312 19.855469 40.4375 19.832031 40.429688 C 19.765625 40.414062 19.621094 40.554688 19.480469 40.558594 C 19.339844 40.5625 19.210938 40.429688 19.179688 40.390625 C 19.171875 40.378906 19.167969 40.371094 19.167969 40.371094 C 19.152344 40.347656 19.144531 40.316406 19.109375 40.203125 C 19.015625 39.910156 19.007812 39.894531 18.992188 39.875 C 18.890625 39.761719 18.78125 39.816406 18.71875 39.714844 C 18.660156 39.617188 18.695312 39.476562 18.75 39.386719 C 18.820312 39.273438 18.90625 39.292969 18.972656 39.160156 C 18.992188 39.117188 18.984375 39.113281 19.035156 38.992188 C 19.097656 38.84375 19.117188 38.832031 19.128906 38.824219 C 19.203125 38.796875 19.308594 38.886719 19.359375 38.949219 C 19.425781 39.027344 19.414062 39.070312 19.464844 39.128906 C 19.550781 39.234375 19.710938 39.285156 19.753906 39.242188 C 19.78125 39.214844 19.730469 39.160156 19.714844 39 C 19.710938 38.957031 19.707031 38.878906 19.722656 38.785156 C 19.730469 38.757812 19.75 38.667969 19.839844 38.542969 C 19.90625 38.445312 20.058594 38.238281 20.320312 38.15625 C 20.535156 38.089844 20.664062 38.15625 20.726562 38.066406 C 20.78125 37.988281 20.699219 37.894531 20.777344 37.765625 C 20.789062 37.742188 20.820312 37.695312 20.871094 37.675781 C 20.925781 37.660156 20.972656 37.679688 21.03125 37.699219 C 21.105469 37.722656 21.296875 37.773438 21.339844 37.71875 C 21.390625 37.660156 21.28125 37.433594 21.101562 37.320312 C 21.074219 37.300781 20.886719 37.183594 20.664062 37.253906 C 20.632812 37.261719 20.464844 37.316406 20.386719 37.464844 C 20.351562 37.539062 20.371094 37.570312 20.335938 37.605469 C 20.21875 37.726562 19.804688 37.613281 19.785156 37.457031 C 19.765625 37.339844 19.984375 37.21875 20.027344 37.195312 C 20.179688 37.109375 20.347656 37.101562 20.457031 37.097656 C 20.582031 37.089844 20.566406 37.109375 20.640625 37.097656 C 20.824219 37.078125 20.972656 36.980469 21.105469 36.875 C 21.203125 36.800781 21.277344 36.710938 21.363281 36.730469 C 21.417969 36.746094 21.453125 36.800781 21.480469 36.84375 C 21.554688 36.960938 21.523438 37.035156 21.574219 37.070312 C 21.644531 37.113281 21.800781 37.035156 21.886719 36.917969 C 21.972656 36.804688 21.953125 36.707031 21.992188 36.535156 C 21.992188 36.535156 21.992188 36.535156 21.992188 36.53125 C 22.277344 36.535156 22.554688 36.566406 22.824219 36.617188 C 23.089844 36.671875 23.3125 36.847656 23.421875 37.09375 L 23.425781 37.097656 C 23.441406 37.136719 23.546875 37.367188 23.46875 37.4375 C 23.394531 37.5 23.203125 37.351562 23.132812 37.425781 C 23.09375 37.464844 23.105469 37.574219 23.160156 37.632812 C 23.25 37.726562 23.402344 37.644531 23.488281 37.742188 C 23.53125 37.785156 23.53125 37.84375 23.535156 37.925781 C 23.539062 38.105469 23.457031 38.175781 23.5 38.269531 C 23.523438 38.320312 23.574219 38.34375 23.613281 38.363281 C 23.757812 38.433594 23.972656 38.394531 24.074219 38.273438 C 24.160156 38.171875 24.097656 38.101562 24.179688 37.957031 C 24.265625 37.808594 24.441406 37.6875 24.523438 37.730469 C 24.617188 37.777344 24.519531 37.988281 24.65625 38.113281 C 24.71875 38.167969 24.796875 38.175781 24.914062 38.191406 C 25.101562 38.214844 25.164062 38.15625 25.292969 38.210938 C 25.328125 38.222656 25.398438 38.253906 25.449219 38.332031 C 25.457031 38.339844 25.53125 38.460938 25.488281 38.574219 C 25.433594 38.699219 25.261719 38.71875 25.15625 38.730469 C 25.089844 38.738281 24.859375 38.765625 24.785156 38.648438 C 24.726562 38.5625 24.796875 38.46875 24.734375 38.40625 C 24.707031 38.375 24.660156 38.371094 24.511719 38.378906 C 24.339844 38.390625 24.253906 38.398438 24.15625 38.425781 C 23.988281 38.472656 23.589844 38.585938 23.542969 38.847656 C 23.519531 38.984375 23.59375 39.148438 23.691406 39.242188 C 23.769531 39.320312 23.828125 39.3125 23.875 39.390625 C 23.949219 39.523438 23.871094 39.699219 23.863281 39.71875 C 23.789062 39.882812 23.652344 39.921875 23.671875 40.007812 C 23.679688 40.058594 23.742188 40.089844 23.808594 40.121094 C 24.003906 40.210938 24.136719 40.144531 24.179688 40.21875 C 24.21875 40.28125 24.125 40.347656 24.15625 40.480469 C 24.167969 40.523438 24.179688 40.519531 24.238281 40.636719 C 24.316406 40.785156 24.300781 40.789062 24.332031 40.824219 C 24.351562 40.847656 24.511719 40.9375 24.710938 40.863281 C 24.867188 40.804688 24.894531 40.699219 24.980469 40.71875 C 25.050781 40.730469 25.046875 40.804688 25.125 40.859375 C 25.273438 40.972656 25.488281 40.804688 25.558594 40.882812 C 25.636719 40.972656 25.398438 41.210938 25.496094 41.398438 C 25.546875 41.488281 25.628906 41.496094 25.636719 41.585938 C 25.644531 41.648438 25.609375 41.679688 25.566406 41.800781 C 25.566406 41.800781 25.535156 41.890625 25.511719 42.011719 C 25.46875 42.285156 25.613281 42.375 25.566406 42.625 C 25.558594 42.65625 25.539062 42.742188 25.511719 42.839844 C 25.5 42.886719 25.488281 42.925781 25.46875 42.980469 C 25.429688 43.082031 25.414062 43.089844 25.390625 43.160156 C 25.367188 43.226562 25.355469 43.273438 25.339844 43.363281 C 25.304688 43.570312 25.285156 43.675781 25.316406 43.757812 C 25.34375 43.839844 25.421875 43.972656 25.527344 43.980469 C 25.683594 43.992188 25.746094 43.722656 25.964844 43.515625 C 26.042969 43.441406 26.128906 43.390625 26.21875 43.363281 C 25.402344 45.074219 23.601562 46.226562 21.554688 46.082031 Z M 21.554688 46.082031 " fill-opacity="1" fill-rule="nonzero"/></g><g fill="#1ed7fe" fill-opacity="1"><g transform="translate(31.411068, 35.815074)"><g><path d="M 0.421875 0 L 0.421875 -9.59375 L 3.34375 -9.59375 L 4.15625 -3.75 L 4.953125 -9.59375 L 7.90625 -9.59375 L 7.90625 0 L 6.15625 0 L 6.15625 -6.921875 L 5.046875 0 L 3.328125 0 L 2.15625 -6.921875 L 2.15625 0 Z M 0.421875 0 "/></g></g></g><g fill="#1ed7fe" fill-opacity="1"><g transform="translate(40.117459, 35.815074)"><g><path d="M 0.171875 0 L 1.09375 -9.59375 L 4.34375 -9.59375 L 5.265625 0 L 3.4375 0 L 3.3125 -1.546875 L 2.140625 -1.546875 L 2.03125 0 Z M 2.296875 -3.078125 L 3.15625 -3.078125 L 2.734375 -7.96875 L 2.640625 -7.96875 Z M 2.296875 -3.078125 "/></g></g></g><g fill="#1ed7fe" fill-opacity="1"><g transform="translate(45.910599, 35.815074)"><g><path d="M 1.25 0 L 1.25 -7.75 L 0.109375 -7.75 L 0.109375 -9.59375 L 4.3125 -9.59375 L 4.3125 -7.75 L 3.171875 -7.75 L 3.171875 0 Z M 1.25 0 "/></g></g></g><g fill="#1ed7fe" fill-opacity="1"><g transform="translate(50.710335, 35.815074)"><g><path d="M 2.65625 0.09375 C 1.957031 0.09375 1.394531 -0.125 0.96875 -0.5625 C 0.550781 -1.007812 0.34375 -1.613281 0.34375 -2.375 L 0.34375 -6.796875 C 0.34375 -7.753906 0.53125 -8.472656 0.90625 -8.953125 C 1.289062 -9.441406 1.890625 -9.6875 2.703125 -9.6875 C 3.410156 -9.6875 3.976562 -9.492188 4.40625 -9.109375 C 4.84375 -8.722656 5.0625 -8.160156 5.0625 -7.421875 L 5.0625 -5.78125 L 3.15625 -5.78125 L 3.15625 -7.1875 C 3.15625 -7.46875 3.117188 -7.660156 3.046875 -7.765625 C 2.984375 -7.867188 2.867188 -7.921875 2.703125 -7.921875 C 2.535156 -7.921875 2.414062 -7.859375 2.34375 -7.734375 C 2.28125 -7.617188 2.25 -7.445312 2.25 -7.21875 L 2.25 -2.40625 C 2.25 -2.144531 2.285156 -1.957031 2.359375 -1.84375 C 2.441406 -1.726562 2.554688 -1.671875 2.703125 -1.671875 C 3.003906 -1.671875 3.15625 -1.914062 3.15625 -2.40625 L 3.15625 -4.140625 L 5.078125 -4.140625 L 5.078125 -2.328125 C 5.078125 -0.710938 4.269531 0.09375 2.65625 0.09375 Z M 2.65625 0.09375 "/></g></g></g><g fill="#1ed7fe" fill-opacity="1"><g transform="translate(56.380696, 35.815074)"><g><path d="M 2.71875 0.09375 C 1.9375 0.09375 1.34375 -0.140625 0.9375 -0.609375 C 0.539062 -1.085938 0.34375 -1.753906 0.34375 -2.609375 L 0.34375 -7.1875 C 0.34375 -8.007812 0.539062 -8.628906 0.9375 -9.046875 C 1.34375 -9.472656 1.9375 -9.6875 2.71875 -9.6875 C 3.488281 -9.6875 4.070312 -9.472656 4.46875 -9.046875 C 4.875 -8.628906 5.078125 -8.007812 5.078125 -7.1875 L 5.078125 -2.609375 C 5.078125 -1.742188 4.875 -1.078125 4.46875 -0.609375 C 4.070312 -0.140625 3.488281 0.09375 2.71875 0.09375 Z M 2.71875 -1.671875 C 2.882812 -1.671875 3 -1.742188 3.0625 -1.890625 C 3.125 -2.046875 3.15625 -2.257812 3.15625 -2.53125 L 3.15625 -7.21875 C 3.15625 -7.425781 3.125 -7.59375 3.0625 -7.71875 C 3.007812 -7.851562 2.894531 -7.921875 2.71875 -7.921875 C 2.40625 -7.921875 2.25 -7.675781 2.25 -7.1875 L 2.25 -2.515625 C 2.25 -2.234375 2.28125 -2.019531 2.34375 -1.875 C 2.414062 -1.738281 2.539062 -1.671875 2.71875 -1.671875 Z M 2.71875 -1.671875 "/></g></g></g><g fill="#1ed7fe" fill-opacity="1"><g transform="translate(62.184999, 35.815074)"><g><path d="M 0.421875 0 L 0.421875 -9.59375 L 3.34375 -9.59375 L 4.15625 -3.75 L 4.953125 -9.59375 L 7.90625 -9.59375 L 7.90625 0 L 6.15625 0 L 6.15625 -6.921875 L 5.046875 0 L 3.328125 0 L 2.15625 -6.921875 L 2.15625 0 Z M 0.421875 0 "/></g></g></g><g fill="#5ce1e6" fill-opacity="1"><g transform="translate(34.075698, 46.423309)"><g><path d="M 0.609375 -2.265625 L 0.609375 -1.40625 L 1.53125 -1.40625 L 1.53125 -1.140625 L 0.609375 -1.140625 L 0.609375 -0.265625 L 1.640625 -0.265625 L 1.640625 0 L 0.28125 0 L 0.28125 -2.53125 L 1.640625 -2.53125 L 1.640625 -2.265625 Z M 0.609375 -2.265625 "/></g></g></g><g fill="#5ce1e6" fill-opacity="1"><g transform="translate(37.025349, 46.423309)"><g><path d="M 2.265625 0 L 1.9375 0 L 0.609375 -2.015625 L 0.609375 0 L 0.28125 0 L 0.28125 -2.53125 L 0.609375 -2.53125 L 1.9375 -0.515625 L 1.9375 -2.53125 L 2.265625 -2.53125 Z M 2.265625 0 "/></g></g></g><g fill="#5ce1e6" fill-opacity="1"><g transform="translate(40.664261, 46.423309)"><g><path d="M 2.1875 -1.796875 C 2.125 -1.941406 2.023438 -2.054688 1.890625 -2.140625 C 1.753906 -2.222656 1.597656 -2.265625 1.421875 -2.265625 C 1.242188 -2.265625 1.082031 -2.222656 0.9375 -2.140625 C 0.800781 -2.054688 0.691406 -1.9375 0.609375 -1.78125 C 0.535156 -1.632812 0.5 -1.460938 0.5 -1.265625 C 0.5 -1.066406 0.535156 -0.890625 0.609375 -0.734375 C 0.691406 -0.585938 0.800781 -0.472656 0.9375 -0.390625 C 1.082031 -0.316406 1.242188 -0.28125 1.421875 -0.28125 C 1.671875 -0.28125 1.875 -0.351562 2.03125 -0.5 C 2.1875 -0.644531 2.28125 -0.84375 2.3125 -1.09375 L 1.3125 -1.09375 L 1.3125 -1.359375 L 2.671875 -1.359375 L 2.671875 -1.109375 C 2.648438 -0.898438 2.582031 -0.707031 2.46875 -0.53125 C 2.351562 -0.363281 2.207031 -0.226562 2.03125 -0.125 C 1.851562 -0.03125 1.648438 0.015625 1.421875 0.015625 C 1.191406 0.015625 0.976562 -0.0351562 0.78125 -0.140625 C 0.59375 -0.253906 0.441406 -0.40625 0.328125 -0.59375 C 0.210938 -0.789062 0.15625 -1.015625 0.15625 -1.265625 C 0.15625 -1.515625 0.210938 -1.734375 0.328125 -1.921875 C 0.441406 -2.117188 0.59375 -2.273438 0.78125 -2.390625 C 0.976562 -2.503906 1.191406 -2.5625 1.421875 -2.5625 C 1.691406 -2.5625 1.929688 -2.492188 2.140625 -2.359375 C 2.347656 -2.222656 2.5 -2.035156 2.59375 -1.796875 Z M 2.1875 -1.796875 "/></g></g></g><g fill="#5ce1e6" fill-opacity="1"><g transform="translate(44.57525, 46.423309)"><g><path d="M 0.609375 -2.53125 L 0.609375 0 L 0.28125 0 L 0.28125 -2.53125 Z M 0.609375 -2.53125 "/></g></g></g><g fill="#5ce1e6" fill-opacity="1"><g transform="translate(46.556305, 46.423309)"><g><path d="M 2.265625 0 L 1.9375 0 L 0.609375 -2.015625 L 0.609375 0 L 0.28125 0 L 0.28125 -2.53125 L 0.609375 -2.53125 L 1.9375 -0.515625 L 1.9375 -2.53125 L 2.265625 -2.53125 Z M 2.265625 0 "/></g></g></g><g fill="#5ce1e6" fill-opacity="1"><g transform="translate(50.195217, 46.423309)"><g><path d="M 0.609375 -2.265625 L 0.609375 -1.40625 L 1.53125 -1.40625 L 1.53125 -1.140625 L 0.609375 -1.140625 L 0.609375 -0.265625 L 1.640625 -0.265625 L 1.640625 0 L 0.28125 0 L 0.28125 -2.53125 L 1.640625 -2.53125 L 1.640625 -2.265625 Z M 0.609375 -2.265625 "/></g></g></g><g fill="#5ce1e6" fill-opacity="1"><g transform="translate(53.144868, 46.423309)"><g><path d="M 0.609375 -2.265625 L 0.609375 -1.40625 L 1.53125 -1.40625 L 1.53125 -1.140625 L 0.609375 -1.140625 L 0.609375 -0.265625 L 1.640625 -0.265625 L 1.640625 0 L 0.28125 0 L 0.28125 -2.53125 L 1.640625 -2.53125 L 1.640625 -2.265625 Z M 0.609375 -2.265625 "/></g></g></g><g fill="#5ce1e6" fill-opacity="1"><g transform="translate(56.094519, 46.423309)"><g><path d="M 1.609375 0 L 1 -1.03125 L 0.609375 -1.03125 L 0.609375 0 L 0.28125 0 L 0.28125 -2.53125 L 1.09375 -2.53125 C 1.28125 -2.53125 1.441406 -2.492188 1.578125 -2.421875 C 1.710938 -2.359375 1.8125 -2.269531 1.875 -2.15625 C 1.9375 -2.050781 1.96875 -1.925781 1.96875 -1.78125 C 1.96875 -1.601562 1.914062 -1.445312 1.8125 -1.3125 C 1.71875 -1.1875 1.570312 -1.101562 1.375 -1.0625 L 2 0 Z M 0.609375 -1.296875 L 1.09375 -1.296875 C 1.269531 -1.296875 1.398438 -1.335938 1.484375 -1.421875 C 1.578125 -1.515625 1.625 -1.632812 1.625 -1.78125 C 1.625 -1.9375 1.578125 -2.050781 1.484375 -2.125 C 1.398438 -2.207031 1.269531 -2.25 1.09375 -2.25 L 0.609375 -2.25 Z M 0.609375 -1.296875 "/></g></g></g><g fill="#5ce1e6" fill-opacity="1"><g transform="translate(59.388802, 46.423309)"><g><path d="M 0.609375 -2.53125 L 0.609375 0 L 0.28125 0 L 0.28125 -2.53125 Z M 0.609375 -2.53125 "/></g></g></g><g fill="#5ce1e6" fill-opacity="1"><g transform="translate(61.369859, 46.423309)"><g><path d="M 2.265625 0 L 1.9375 0 L 0.609375 -2.015625 L 0.609375 0 L 0.28125 0 L 0.28125 -2.53125 L 0.609375 -2.53125 L 1.9375 -0.515625 L 1.9375 -2.53125 L 2.265625 -2.53125 Z M 2.265625 0 "/></g></g></g><g fill="#5ce1e6" fill-opacity="1"><g transform="translate(65.008772, 46.423309)"><g><path d="M 2.1875 -1.796875 C 2.125 -1.941406 2.023438 -2.054688 1.890625 -2.140625 C 1.753906 -2.222656 1.597656 -2.265625 1.421875 -2.265625 C 1.242188 -2.265625 1.082031 -2.222656 0.9375 -2.140625 C 0.800781 -2.054688 0.691406 -1.9375 0.609375 -1.78125 C 0.535156 -1.632812 0.5 -1.460938 0.5 -1.265625 C 0.5 -1.066406 0.535156 -0.890625 0.609375 -0.734375 C 0.691406 -0.585938 0.800781 -0.472656 0.9375 -0.390625 C 1.082031 -0.316406 1.242188 -0.28125 1.421875 -0.28125 C 1.671875 -0.28125 1.875 -0.351562 2.03125 -0.5 C 2.1875 -0.644531 2.28125 -0.84375 2.3125 -1.09375 L 1.3125 -1.09375 L 1.3125 -1.359375 L 2.671875 -1.359375 L 2.671875 -1.109375 C 2.648438 -0.898438 2.582031 -0.707031 2.46875 -0.53125 C 2.351562 -0.363281 2.207031 -0.226562 2.03125 -0.125 C 1.851562 -0.03125 1.648438 0.015625 1.421875 0.015625 C 1.191406 0.015625 0.976562 -0.0351562 0.78125 -0.140625 C 0.59375 -0.253906 0.441406 -0.40625 0.328125 -0.59375 C 0.210938 -0.789062 0.15625 -1.015625 0.15625 -1.265625 C 0.15625 -1.515625 0.210938 -1.734375 0.328125 -1.921875 C 0.441406 -2.117188 0.59375 -2.273438 0.78125 -2.390625 C 0.976562 -2.503906 1.191406 -2.5625 1.421875 -2.5625 C 1.691406 -2.5625 1.929688 -2.492188 2.140625 -2.359375 C 2.347656 -2.222656 2.5 -2.035156 2.59375 -1.796875 Z M 2.1875 -1.796875 "/></g></g></g><g fill="#1ed7fe" fill-opacity="1"><g transform="translate(36.954117, 55.985468)"><g><path d="M 1.140625 0.03125 C 0.953125 0.03125 0.789062 0 0.65625 -0.0625 C 0.519531 -0.132812 0.410156 -0.238281 0.328125 -0.375 C 0.253906 -0.507812 0.21875 -0.675781 0.21875 -0.875 C 0.21875 -0.988281 0.234375 -1.109375 0.265625 -1.234375 C 0.316406 -1.492188 0.40625 -1.710938 0.53125 -1.890625 C 0.65625 -2.066406 0.8125 -2.195312 1 -2.28125 C 1.1875 -2.375 1.394531 -2.421875 1.625 -2.421875 C 1.84375 -2.421875 2.019531 -2.375 2.15625 -2.28125 C 2.300781 -2.1875 2.394531 -2.050781 2.4375 -1.875 L 2.0625 -1.671875 L 2.03125 -1.671875 C 2 -1.785156 1.941406 -1.867188 1.859375 -1.921875 C 1.785156 -1.984375 1.679688 -2.015625 1.546875 -2.015625 C 1.347656 -2.015625 1.175781 -1.945312 1.03125 -1.8125 C 0.894531 -1.6875 0.796875 -1.488281 0.734375 -1.21875 C 0.710938 -1.09375 0.703125 -0.984375 0.703125 -0.890625 C 0.703125 -0.710938 0.742188 -0.582031 0.828125 -0.5 C 0.910156 -0.414062 1.03125 -0.375 1.1875 -0.375 C 1.320312 -0.375 1.441406 -0.410156 1.546875 -0.484375 C 1.648438 -0.554688 1.742188 -0.671875 1.828125 -0.828125 L 1.875 -0.828125 L 2.203125 -0.640625 C 2.140625 -0.484375 2.054688 -0.351562 1.953125 -0.25 C 1.859375 -0.15625 1.742188 -0.0820312 1.609375 -0.03125 C 1.472656 0.0078125 1.316406 0.03125 1.140625 0.03125 Z M 1.140625 0.03125 "/></g></g></g><g fill="#1ed7fe" fill-opacity="1"><g transform="translate(39.299077, 55.985468)"><g><path d="M 0.0625 0 L 0.453125 -1.796875 L 0.890625 -1.796875 L 0.828125 -1.53125 L 0.859375 -1.53125 C 0.921875 -1.632812 0.988281 -1.707031 1.0625 -1.75 C 1.144531 -1.789062 1.242188 -1.8125 1.359375 -1.8125 C 1.410156 -1.8125 1.453125 -1.804688 1.484375 -1.796875 C 1.523438 -1.796875 1.554688 -1.785156 1.578125 -1.765625 L 1.4375 -1.375 L 1.390625 -1.359375 C 1.335938 -1.390625 1.273438 -1.40625 1.203125 -1.40625 C 0.941406 -1.40625 0.773438 -1.21875 0.703125 -0.84375 L 0.515625 0 Z M 0.0625 0 "/></g></g></g><g fill="#1ed7fe" fill-opacity="1"><g transform="translate(40.713577, 55.985468)"><g><path d="M 1.828125 -1.25 C 1.785156 -1.050781 1.675781 -0.910156 1.5 -0.828125 C 1.320312 -0.742188 1.109375 -0.703125 0.859375 -0.703125 C 0.765625 -0.703125 0.679688 -0.703125 0.609375 -0.703125 C 0.609375 -0.585938 0.640625 -0.5 0.703125 -0.4375 C 0.765625 -0.375 0.847656 -0.34375 0.953125 -0.34375 C 1.046875 -0.34375 1.125 -0.363281 1.1875 -0.40625 C 1.257812 -0.445312 1.320312 -0.507812 1.375 -0.59375 L 1.40625 -0.59375 L 1.703125 -0.390625 C 1.648438 -0.296875 1.585938 -0.21875 1.515625 -0.15625 C 1.441406 -0.101562 1.351562 -0.0546875 1.25 -0.015625 C 1.144531 0.015625 1.019531 0.03125 0.875 0.03125 C 0.726562 0.03125 0.601562 0.00390625 0.5 -0.046875 C 0.394531 -0.109375 0.3125 -0.195312 0.25 -0.3125 C 0.1875 -0.425781 0.15625 -0.5625 0.15625 -0.71875 C 0.15625 -0.800781 0.164062 -0.894531 0.1875 -1 C 0.21875 -1.175781 0.28125 -1.328125 0.375 -1.453125 C 0.476562 -1.578125 0.597656 -1.671875 0.734375 -1.734375 C 0.878906 -1.796875 1.035156 -1.828125 1.203125 -1.828125 C 1.335938 -1.828125 1.453125 -1.804688 1.546875 -1.765625 C 1.648438 -1.722656 1.722656 -1.664062 1.765625 -1.59375 C 1.816406 -1.53125 1.84375 -1.453125 1.84375 -1.359375 C 1.84375 -1.316406 1.835938 -1.28125 1.828125 -1.25 Z M 1.15625 -1.484375 C 1.09375 -1.484375 1.023438 -1.46875 0.953125 -1.4375 C 0.890625 -1.40625 0.832031 -1.359375 0.78125 -1.296875 C 0.726562 -1.234375 0.6875 -1.15625 0.65625 -1.0625 C 0.738281 -1.050781 0.816406 -1.046875 0.890625 -1.046875 C 1.035156 -1.046875 1.148438 -1.0625 1.234375 -1.09375 C 1.328125 -1.132812 1.382812 -1.203125 1.40625 -1.296875 C 1.40625 -1.304688 1.40625 -1.316406 1.40625 -1.328125 C 1.40625 -1.367188 1.382812 -1.40625 1.34375 -1.4375 C 1.300781 -1.46875 1.238281 -1.484375 1.15625 -1.484375 Z M 1.15625 -1.484375 "/></g></g></g><g fill="#1ed7fe" fill-opacity="1"><g transform="translate(42.674253, 55.985468)"><g><path d="M 0.71875 0.03125 C 0.613281 0.03125 0.515625 0.0078125 0.421875 -0.03125 C 0.335938 -0.0820312 0.269531 -0.160156 0.21875 -0.265625 C 0.164062 -0.367188 0.140625 -0.492188 0.140625 -0.640625 C 0.140625 -0.734375 0.148438 -0.835938 0.171875 -0.953125 C 0.234375 -1.242188 0.34375 -1.460938 0.5 -1.609375 C 0.65625 -1.753906 0.851562 -1.828125 1.09375 -1.828125 C 1.207031 -1.828125 1.300781 -1.804688 1.375 -1.765625 C 1.457031 -1.734375 1.519531 -1.675781 1.5625 -1.59375 L 1.59375 -1.609375 L 1.640625 -1.796875 L 2.09375 -1.796875 L 1.703125 0 L 1.25 0 L 1.296875 -0.234375 L 1.265625 -0.234375 C 1.203125 -0.148438 1.125 -0.0820312 1.03125 -0.03125 C 0.945312 0.0078125 0.84375 0.03125 0.71875 0.03125 Z M 0.921875 -0.34375 C 1.046875 -0.34375 1.15625 -0.382812 1.25 -0.46875 C 1.34375 -0.5625 1.40625 -0.691406 1.4375 -0.859375 C 1.457031 -0.941406 1.46875 -1.015625 1.46875 -1.078125 C 1.46875 -1.203125 1.4375 -1.296875 1.375 -1.359375 C 1.320312 -1.421875 1.25 -1.453125 1.15625 -1.453125 C 1.019531 -1.453125 0.90625 -1.40625 0.8125 -1.3125 C 0.726562 -1.226562 0.664062 -1.097656 0.625 -0.921875 C 0.613281 -0.847656 0.609375 -0.78125 0.609375 -0.71875 C 0.609375 -0.59375 0.632812 -0.5 0.6875 -0.4375 C 0.738281 -0.375 0.816406 -0.34375 0.921875 -0.34375 Z M 0.921875 -0.34375 "/></g></g></g><g fill="#1ed7fe" fill-opacity="1"><g transform="translate(44.836064, 55.985468)"><g><path d="M 0.890625 -1.4375 L 0.71875 -0.625 C 0.71875 -0.59375 0.71875 -0.5625 0.71875 -0.53125 C 0.71875 -0.476562 0.726562 -0.4375 0.75 -0.40625 C 0.78125 -0.375 0.828125 -0.359375 0.890625 -0.359375 C 0.921875 -0.359375 0.953125 -0.363281 0.984375 -0.375 C 1.023438 -0.382812 1.0625 -0.398438 1.09375 -0.421875 L 1.125 -0.421875 L 1.1875 -0.09375 C 1.132812 -0.0507812 1.070312 -0.0195312 1 0 C 0.9375 0.0195312 0.851562 0.03125 0.75 0.03125 C 0.65625 0.03125 0.566406 0.015625 0.484375 -0.015625 C 0.410156 -0.0546875 0.351562 -0.109375 0.3125 -0.171875 C 0.269531 -0.242188 0.25 -0.332031 0.25 -0.4375 C 0.25 -0.5 0.253906 -0.566406 0.265625 -0.640625 L 0.4375 -1.4375 L 0.171875 -1.4375 L 0.25 -1.796875 L 0.515625 -1.796875 L 0.59375 -2.15625 L 1.0625 -2.234375 L 0.96875 -1.796875 L 1.484375 -1.796875 L 1.40625 -1.4375 Z M 0.890625 -1.4375 "/></g></g></g><g fill="#1ed7fe" fill-opacity="1"><g transform="translate(46.237481, 55.985468)"><g><path d="M 0.78125 -2.015625 C 0.695312 -2.015625 0.628906 -2.039062 0.578125 -2.09375 C 0.523438 -2.144531 0.5 -2.207031 0.5 -2.28125 C 0.5 -2.351562 0.523438 -2.414062 0.578125 -2.46875 C 0.628906 -2.519531 0.695312 -2.546875 0.78125 -2.546875 C 0.832031 -2.546875 0.878906 -2.535156 0.921875 -2.515625 C 0.960938 -2.492188 0.992188 -2.460938 1.015625 -2.421875 C 1.046875 -2.378906 1.0625 -2.332031 1.0625 -2.28125 C 1.0625 -2.226562 1.046875 -2.179688 1.015625 -2.140625 C 0.992188 -2.097656 0.960938 -2.066406 0.921875 -2.046875 C 0.878906 -2.023438 0.832031 -2.015625 0.78125 -2.015625 Z M 0.0625 0 L 0.453125 -1.796875 L 0.90625 -1.796875 L 0.515625 0 Z M 0.0625 0 "/></g></g></g><g fill="#1ed7fe" fill-opacity="1"><g transform="translate(47.208825, 55.985468)"><g><path d="M 0.0625 0 L 0.453125 -1.796875 L 0.890625 -1.796875 L 0.828125 -1.53125 L 0.859375 -1.53125 C 0.929688 -1.632812 1.007812 -1.707031 1.09375 -1.75 C 1.1875 -1.800781 1.300781 -1.828125 1.4375 -1.828125 C 1.601562 -1.828125 1.726562 -1.78125 1.8125 -1.6875 C 1.90625 -1.601562 1.953125 -1.484375 1.953125 -1.328125 C 1.953125 -1.253906 1.941406 -1.179688 1.921875 -1.109375 L 1.6875 0 L 1.234375 0 L 1.46875 -1.109375 C 1.476562 -1.148438 1.484375 -1.1875 1.484375 -1.21875 C 1.484375 -1.289062 1.460938 -1.347656 1.421875 -1.390625 C 1.378906 -1.429688 1.3125 -1.453125 1.21875 -1.453125 C 1.09375 -1.453125 0.988281 -1.410156 0.90625 -1.328125 C 0.820312 -1.242188 0.757812 -1.113281 0.71875 -0.9375 L 0.515625 0 Z M 0.0625 0 "/></g></g></g><g fill="#1ed7fe" fill-opacity="1"><g transform="translate(49.321578, 55.985468)"><g><path d="M 0.609375 0.765625 C 0.453125 0.765625 0.3125 0.742188 0.1875 0.703125 C 0.0703125 0.671875 -0.015625 0.617188 -0.078125 0.546875 C -0.148438 0.484375 -0.1875 0.40625 -0.1875 0.3125 C -0.1875 0.28125 -0.179688 0.25 -0.171875 0.21875 C -0.160156 0.144531 -0.117188 0.078125 -0.046875 0.015625 C 0.0234375 -0.0351562 0.117188 -0.0664062 0.234375 -0.078125 L 0.25 -0.125 C 0.207031 -0.15625 0.175781 -0.1875 0.15625 -0.21875 C 0.144531 -0.25 0.140625 -0.289062 0.140625 -0.34375 C 0.140625 -0.363281 0.140625 -0.390625 0.140625 -0.421875 C 0.171875 -0.554688 0.285156 -0.644531 0.484375 -0.6875 L 0.484375 -0.71875 C 0.421875 -0.769531 0.375 -0.820312 0.34375 -0.875 C 0.3125 -0.9375 0.296875 -1.015625 0.296875 -1.109375 C 0.296875 -1.160156 0.300781 -1.21875 0.3125 -1.28125 C 0.332031 -1.382812 0.378906 -1.476562 0.453125 -1.5625 C 0.523438 -1.644531 0.613281 -1.707031 0.71875 -1.75 C 0.832031 -1.800781 0.960938 -1.828125 1.109375 -1.828125 C 1.253906 -1.828125 1.375 -1.800781 1.46875 -1.75 C 1.539062 -1.820312 1.597656 -1.914062 1.640625 -2.03125 L 1.671875 -2.0625 L 1.984375 -1.984375 C 1.953125 -1.878906 1.910156 -1.796875 1.859375 -1.734375 C 1.804688 -1.679688 1.734375 -1.640625 1.640625 -1.609375 L 1.625 -1.5625 C 1.6875 -1.5 1.71875 -1.421875 1.71875 -1.328125 C 1.71875 -1.273438 1.707031 -1.210938 1.6875 -1.140625 C 1.664062 -1.046875 1.625 -0.957031 1.5625 -0.875 C 1.5 -0.789062 1.410156 -0.722656 1.296875 -0.671875 C 1.179688 -0.628906 1.039062 -0.609375 0.875 -0.609375 L 0.8125 -0.609375 C 0.769531 -0.609375 0.738281 -0.609375 0.71875 -0.609375 C 0.675781 -0.609375 0.640625 -0.597656 0.609375 -0.578125 C 0.585938 -0.554688 0.570312 -0.53125 0.5625 -0.5 C 0.5625 -0.488281 0.5625 -0.476562 0.5625 -0.46875 C 0.5625 -0.4375 0.570312 -0.410156 0.59375 -0.390625 C 0.625 -0.378906 0.664062 -0.375 0.71875 -0.375 L 1.0625 -0.359375 C 1.425781 -0.335938 1.609375 -0.195312 1.609375 0.0625 C 1.609375 0.101562 1.601562 0.148438 1.59375 0.203125 C 1.570312 0.304688 1.523438 0.398438 1.453125 0.484375 C 1.378906 0.566406 1.269531 0.632812 1.125 0.6875 C 0.988281 0.738281 0.816406 0.765625 0.609375 0.765625 Z M 0.953125 -0.921875 C 1.035156 -0.921875 1.101562 -0.945312 1.15625 -1 C 1.21875 -1.050781 1.257812 -1.128906 1.28125 -1.234375 C 1.289062 -1.253906 1.296875 -1.28125 1.296875 -1.3125 C 1.296875 -1.375 1.273438 -1.421875 1.234375 -1.453125 C 1.191406 -1.492188 1.132812 -1.515625 1.0625 -1.515625 C 0.976562 -1.515625 0.90625 -1.488281 0.84375 -1.4375 C 0.789062 -1.382812 0.753906 -1.3125 0.734375 -1.21875 C 0.722656 -1.1875 0.71875 -1.160156 0.71875 -1.140625 C 0.71875 -1.066406 0.738281 -1.007812 0.78125 -0.96875 C 0.820312 -0.9375 0.878906 -0.921875 0.953125 -0.921875 Z M 0.65625 0.4375 C 0.75 0.4375 0.832031 0.425781 0.90625 0.40625 C 0.976562 0.382812 1.03125 0.351562 1.0625 0.3125 C 1.101562 0.28125 1.128906 0.25 1.140625 0.21875 C 1.140625 0.195312 1.140625 0.175781 1.140625 0.15625 C 1.140625 0.113281 1.125 0.0820312 1.09375 0.0625 C 1.0625 0.0390625 1.003906 0.03125 0.921875 0.03125 L 0.59375 0.015625 C 0.570312 0.015625 0.550781 0.015625 0.53125 0.015625 C 0.457031 0.015625 0.394531 0.03125 0.34375 0.0625 C 0.289062 0.101562 0.265625 0.160156 0.265625 0.234375 C 0.265625 0.296875 0.296875 0.34375 0.359375 0.375 C 0.429688 0.414062 0.53125 0.4375 0.65625 0.4375 Z M 0.65625 0.4375 "/></g></g></g><g fill="#1ed7fe" fill-opacity="1"><g transform="translate(51.19722, 55.985468)"><g/></g></g><g fill="#1ed7fe" fill-opacity="1"><g transform="translate(51.987052, 55.985468)"><g><path d="M 1.078125 0.03125 C 0.953125 0.03125 0.847656 0.0078125 0.765625 -0.03125 C 0.691406 -0.0820312 0.640625 -0.144531 0.609375 -0.21875 L 0.5625 -0.21875 L 0.515625 0 L 0.0625 0 L 0.609375 -2.53125 L 1.0625 -2.53125 L 0.859375 -1.59375 L 0.890625 -1.578125 C 0.972656 -1.671875 1.054688 -1.734375 1.140625 -1.765625 C 1.222656 -1.804688 1.320312 -1.828125 1.4375 -1.828125 C 1.625 -1.828125 1.765625 -1.769531 1.859375 -1.65625 C 1.960938 -1.550781 2.015625 -1.394531 2.015625 -1.1875 C 2.015625 -1.070312 2.003906 -0.945312 1.984375 -0.8125 C 1.921875 -0.539062 1.8125 -0.332031 1.65625 -0.1875 C 1.5 -0.0390625 1.304688 0.03125 1.078125 0.03125 Z M 1 -0.34375 C 1.132812 -0.34375 1.242188 -0.382812 1.328125 -0.46875 C 1.421875 -0.5625 1.484375 -0.691406 1.515625 -0.859375 C 1.535156 -0.960938 1.546875 -1.046875 1.546875 -1.109375 C 1.546875 -1.234375 1.519531 -1.320312 1.46875 -1.375 C 1.414062 -1.425781 1.335938 -1.453125 1.234375 -1.453125 C 1.109375 -1.453125 1 -1.40625 0.90625 -1.3125 C 0.8125 -1.226562 0.75 -1.101562 0.71875 -0.9375 C 0.695312 -0.84375 0.6875 -0.765625 0.6875 -0.703125 C 0.6875 -0.578125 0.710938 -0.484375 0.765625 -0.421875 C 0.828125 -0.367188 0.90625 -0.34375 1 -0.34375 Z M 1 -0.34375 "/></g></g></g><g fill="#1ed7fe" fill-opacity="1"><g transform="translate(54.147229, 55.985468)"><g><path d="M 0.890625 0.03125 C 0.742188 0.03125 0.613281 0.00390625 0.5 -0.046875 C 0.382812 -0.109375 0.296875 -0.191406 0.234375 -0.296875 C 0.171875 -0.398438 0.140625 -0.53125 0.140625 -0.6875 C 0.140625 -0.769531 0.148438 -0.863281 0.171875 -0.96875 C 0.210938 -1.144531 0.273438 -1.296875 0.359375 -1.421875 C 0.453125 -1.554688 0.566406 -1.65625 0.703125 -1.71875 C 0.847656 -1.789062 1.015625 -1.828125 1.203125 -1.828125 C 1.347656 -1.828125 1.476562 -1.796875 1.59375 -1.734375 C 1.707031 -1.679688 1.796875 -1.597656 1.859375 -1.484375 C 1.921875 -1.378906 1.953125 -1.253906 1.953125 -1.109375 C 1.953125 -1.023438 1.941406 -0.9375 1.921875 -0.84375 C 1.878906 -0.65625 1.8125 -0.492188 1.71875 -0.359375 C 1.625 -0.234375 1.507812 -0.132812 1.375 -0.0625 C 1.238281 0 1.078125 0.03125 0.890625 0.03125 Z M 0.9375 -0.34375 C 1.070312 -0.34375 1.179688 -0.390625 1.265625 -0.484375 C 1.359375 -0.578125 1.425781 -0.71875 1.46875 -0.90625 C 1.476562 -0.976562 1.484375 -1.046875 1.484375 -1.109375 C 1.484375 -1.222656 1.453125 -1.304688 1.390625 -1.359375 C 1.335938 -1.421875 1.257812 -1.453125 1.15625 -1.453125 C 1.019531 -1.453125 0.90625 -1.40625 0.8125 -1.3125 C 0.726562 -1.21875 0.664062 -1.082031 0.625 -0.90625 C 0.613281 -0.820312 0.609375 -0.753906 0.609375 -0.703125 C 0.609375 -0.578125 0.632812 -0.484375 0.6875 -0.421875 C 0.75 -0.367188 0.832031 -0.34375 0.9375 -0.34375 Z M 0.9375 -0.34375 "/></g></g></g><g fill="#1ed7fe" fill-opacity="1"><g transform="translate(56.24363, 55.985468)"><g><path d="M 0.0625 0 L 0.453125 -1.796875 L 0.890625 -1.796875 L 0.828125 -1.53125 L 0.859375 -1.53125 C 0.929688 -1.632812 1.007812 -1.707031 1.09375 -1.75 C 1.1875 -1.800781 1.300781 -1.828125 1.4375 -1.828125 C 1.601562 -1.828125 1.726562 -1.78125 1.8125 -1.6875 C 1.90625 -1.601562 1.953125 -1.484375 1.953125 -1.328125 C 1.953125 -1.253906 1.941406 -1.179688 1.921875 -1.109375 L 1.6875 0 L 1.234375 0 L 1.46875 -1.109375 C 1.476562 -1.148438 1.484375 -1.1875 1.484375 -1.21875 C 1.484375 -1.289062 1.460938 -1.347656 1.421875 -1.390625 C 1.378906 -1.429688 1.3125 -1.453125 1.21875 -1.453125 C 1.09375 -1.453125 0.988281 -1.410156 0.90625 -1.328125 C 0.820312 -1.242188 0.757812 -1.113281 0.71875 -0.9375 L 0.515625 0 Z M 0.0625 0 "/></g></g></g><g fill="#1ed7fe" fill-opacity="1"><g transform="translate(58.356383, 55.985468)"><g><path d="M 0.734375 0.03125 C 0.617188 0.03125 0.515625 0.0078125 0.421875 -0.03125 C 0.335938 -0.0820312 0.269531 -0.15625 0.21875 -0.25 C 0.164062 -0.351562 0.140625 -0.484375 0.140625 -0.640625 C 0.140625 -0.742188 0.148438 -0.851562 0.171875 -0.96875 C 0.234375 -1.25 0.34375 -1.460938 0.5 -1.609375 C 0.65625 -1.753906 0.851562 -1.828125 1.09375 -1.828125 C 1.207031 -1.828125 1.300781 -1.804688 1.375 -1.765625 C 1.457031 -1.722656 1.519531 -1.660156 1.5625 -1.578125 L 1.59375 -1.59375 L 1.796875 -2.53125 L 2.25 -2.53125 L 1.703125 0 L 1.25 0 L 1.296875 -0.21875 L 1.265625 -0.21875 C 1.203125 -0.132812 1.128906 -0.0703125 1.046875 -0.03125 C 0.972656 0.0078125 0.867188 0.03125 0.734375 0.03125 Z M 0.921875 -0.34375 C 1.046875 -0.34375 1.15625 -0.382812 1.25 -0.46875 C 1.34375 -0.5625 1.40625 -0.691406 1.4375 -0.859375 C 1.457031 -0.941406 1.46875 -1.015625 1.46875 -1.078125 C 1.46875 -1.203125 1.4375 -1.296875 1.375 -1.359375 C 1.3125 -1.421875 1.234375 -1.453125 1.140625 -1.453125 C 1.015625 -1.453125 0.90625 -1.40625 0.8125 -1.3125 C 0.726562 -1.226562 0.671875 -1.101562 0.640625 -0.9375 C 0.617188 -0.851562 0.609375 -0.78125 0.609375 -0.71875 C 0.609375 -0.59375 0.632812 -0.5 0.6875 -0.4375 C 0.75 -0.375 0.828125 -0.34375 0.921875 -0.34375 Z M 0.921875 -0.34375 "/></g></g></g><g fill="#1ed7fe" fill-opacity="1"><g transform="translate(60.518194, 55.985468)"><g><path d="M 0.65625 0.03125 C 0.550781 0.03125 0.453125 0.015625 0.359375 -0.015625 C 0.265625 -0.046875 0.179688 -0.0859375 0.109375 -0.140625 C 0.046875 -0.191406 0 -0.25 -0.03125 -0.3125 L 0.265625 -0.578125 L 0.296875 -0.578125 C 0.335938 -0.492188 0.394531 -0.429688 0.46875 -0.390625 C 0.539062 -0.347656 0.625 -0.328125 0.71875 -0.328125 C 0.820312 -0.328125 0.898438 -0.347656 0.953125 -0.390625 C 1.003906 -0.429688 1.03125 -0.488281 1.03125 -0.5625 C 1.03125 -0.601562 1.015625 -0.632812 0.984375 -0.65625 C 0.960938 -0.6875 0.914062 -0.710938 0.84375 -0.734375 L 0.609375 -0.796875 C 0.503906 -0.835938 0.414062 -0.890625 0.34375 -0.953125 C 0.269531 -1.023438 0.234375 -1.117188 0.234375 -1.234375 C 0.234375 -1.273438 0.238281 -1.320312 0.25 -1.375 C 0.28125 -1.519531 0.359375 -1.628906 0.484375 -1.703125 C 0.617188 -1.785156 0.796875 -1.828125 1.015625 -1.828125 C 1.160156 -1.828125 1.285156 -1.800781 1.390625 -1.75 C 1.492188 -1.707031 1.570312 -1.644531 1.625 -1.5625 L 1.34375 -1.3125 L 1.3125 -1.3125 C 1.269531 -1.375 1.21875 -1.414062 1.15625 -1.4375 C 1.101562 -1.46875 1.039062 -1.484375 0.96875 -1.484375 C 0.875 -1.484375 0.800781 -1.46875 0.75 -1.4375 C 0.707031 -1.414062 0.679688 -1.378906 0.671875 -1.328125 C 0.660156 -1.304688 0.65625 -1.296875 0.65625 -1.296875 C 0.65625 -1.253906 0.671875 -1.21875 0.703125 -1.1875 C 0.742188 -1.164062 0.796875 -1.144531 0.859375 -1.125 L 1.0625 -1.078125 C 1.34375 -1.003906 1.484375 -0.851562 1.484375 -0.625 C 1.484375 -0.582031 1.476562 -0.535156 1.46875 -0.484375 C 1.425781 -0.316406 1.335938 -0.1875 1.203125 -0.09375 C 1.078125 -0.0078125 0.894531 0.03125 0.65625 0.03125 Z M 0.65625 0.03125 "/></g></g></g><g fill="#1ed7fe" fill-opacity="1"><g transform="translate(62.181253, 55.985468)"><g><path d="M 0.328125 0.015625 C 0.265625 0.015625 0.210938 0.00390625 0.171875 -0.015625 C 0.128906 -0.046875 0.09375 -0.078125 0.0625 -0.109375 C 0.0390625 -0.148438 0.03125 -0.203125 0.03125 -0.265625 C 0.03125 -0.316406 0.0390625 -0.359375 0.0625 -0.390625 C 0.09375 -0.429688 0.128906 -0.460938 0.171875 -0.484375 C 0.210938 -0.515625 0.265625 -0.53125 0.328125 -0.53125 C 0.378906 -0.53125 0.425781 -0.519531 0.46875 -0.5 C 0.519531 -0.476562 0.554688 -0.445312 0.578125 -0.40625 C 0.597656 -0.363281 0.609375 -0.316406 0.609375 -0.265625 C 0.609375 -0.179688 0.582031 -0.113281 0.53125 -0.0625 C 0.476562 -0.0078125 0.410156 0.015625 0.328125 0.015625 Z M 0.328125 0.015625 "/></g></g></g><g fill="#1ed7fe" fill-opacity="1"><g transform="translate(63.105175, 55.985468)"><g><path d="M 0.328125 0.015625 C 0.265625 0.015625 0.210938 0.00390625 0.171875 -0.015625 C 0.128906 -0.046875 0.09375 -0.078125 0.0625 -0.109375 C 0.0390625 -0.148438 0.03125 -0.203125 0.03125 -0.265625 C 0.03125 -0.316406 0.0390625 -0.359375 0.0625 -0.390625 C 0.09375 -0.429688 0.128906 -0.460938 0.171875 -0.484375 C 0.210938 -0.515625 0.265625 -0.53125 0.328125 -0.53125 C 0.378906 -0.53125 0.425781 -0.519531 0.46875 -0.5 C 0.519531 -0.476562 0.554688 -0.445312 0.578125 -0.40625 C 0.597656 -0.363281 0.609375 -0.316406 0.609375 -0.265625 C 0.609375 -0.179688 0.582031 -0.113281 0.53125 -0.0625 C 0.476562 -0.0078125 0.410156 0.015625 0.328125 0.015625 Z M 0.328125 0.015625 "/></g></g></g><g fill="#1ed7fe" fill-opacity="1"><g transform="translate(64.029098, 55.985468)"><g><path d="M 0.328125 0.015625 C 0.265625 0.015625 0.210938 0.00390625 0.171875 -0.015625 C 0.128906 -0.046875 0.09375 -0.078125 0.0625 -0.109375 C 0.0390625 -0.148438 0.03125 -0.203125 0.03125 -0.265625 C 0.03125 -0.316406 0.0390625 -0.359375 0.0625 -0.390625 C 0.09375 -0.429688 0.128906 -0.460938 0.171875 -0.484375 C 0.210938 -0.515625 0.265625 -0.53125 0.328125 -0.53125 C 0.378906 -0.53125 0.425781 -0.519531 0.46875 -0.5 C 0.519531 -0.476562 0.554688 -0.445312 0.578125 -0.40625 C 0.597656 -0.363281 0.609375 -0.316406 0.609375 -0.265625 C 0.609375 -0.179688 0.582031 -0.113281 0.53125 -0.0625 C 0.476562 -0.0078125 0.410156 0.015625 0.328125 0.015625 Z M 0.328125 0.015625 "/></g></g></g><g fill="#1ed7fe" fill-opacity="1"><g transform="translate(45.312406, 42.313924)"><g><path d="M 0.734375 0 L 0.734375 -3.953125 L 5.46875 -3.953125 L 5.46875 0 Z M 0.734375 0 "/></g></g></g><g fill="#ffffff" fill-opacity="1"><g transform="translate(49.840173, 42.313924)"><g><path d="M 0.734375 0 L 0.734375 -3.953125 L 5.46875 -3.953125 L 5.46875 0 Z M 0.734375 0 "/></g></g></g></svg>