<svg xmlns="http://www.w3.org/2000/svg" xmlns:xlink="http://www.w3.org/1999/xlink" width="100" zoomAndPan="magnify" viewBox="0 0 75 74.999997" height="100" preserveAspectRatio="xMidYMid meet" version="1.0"><defs><g/><clipPath id="8feeb30be1"><path d="M 12 23.324219 L 21.59375 23.324219 L 21.59375 32 L 12 32 Z M 12 23.324219 " clip-rule="nonzero"/></clipPath><clipPath id="0991622146"><path d="M 12 46 L 21.59375 46 L 21.59375 54.777344 L 12 54.777344 Z M 12 46 " clip-rule="nonzero"/></clipPath><clipPath id="6a5e317943"><path d="M 5.285156 26 L 21.59375 26 L 21.59375 52 L 5.285156 52 Z M 5.285156 26 " clip-rule="nonzero"/></clipPath><clipPath id="026e494610"><path d="M 17.613281 34.640625 L 26.433594 34.640625 L 26.433594 43.460938 L 17.613281 43.460938 Z M 17.613281 34.640625 " clip-rule="nonzero"/></clipPath></defs><rect x="-7.5" width="90" fill="#ffffff" y="-7.5" height="89.999996" fill-opacity="1"/><rect x="-7.5" width="90" fill="#000000" y="-7.5" height="89.999996" fill-opacity="1"/><g clip-path="url(#8feeb30be1)"><path fill="#1ed7fe" d="M 21.554688 24.160156 C 21.554688 23.964844 21.492188 23.796875 21.363281 23.648438 C 21.234375 23.5 21.074219 23.414062 20.882812 23.386719 C 20.691406 23.359375 20.511719 23.398438 20.347656 23.503906 C 20.183594 23.609375 20.074219 23.753906 20.019531 23.941406 C 19.964844 24.128906 19.980469 24.3125 20.058594 24.488281 C 20.140625 24.667969 20.269531 24.796875 20.449219 24.875 L 20.449219 29.6875 C 19.246094 29.933594 18.132812 30.394531 17.113281 31.070312 L 16.519531 30.476562 L 13.6875 27.648438 C 13.730469 27.535156 13.746094 27.417969 13.734375 27.300781 C 13.722656 27.179688 13.683594 27.070312 13.621094 26.964844 C 13.558594 26.863281 13.476562 26.78125 13.378906 26.714844 C 13.277344 26.652344 13.167969 26.613281 13.046875 26.597656 C 12.929688 26.582031 12.8125 26.597656 12.699219 26.636719 C 12.585938 26.675781 12.484375 26.738281 12.402344 26.820312 C 12.316406 26.90625 12.253906 27.007812 12.214844 27.121094 C 12.175781 27.234375 12.164062 27.351562 12.179688 27.46875 C 12.195312 27.585938 12.234375 27.699219 12.296875 27.796875 C 12.363281 27.898438 12.449219 27.980469 12.550781 28.042969 C 12.652344 28.105469 12.765625 28.140625 12.882812 28.152344 C 13.003906 28.164062 13.117188 28.148438 13.230469 28.105469 L 13.390625 28.269531 L 17.050781 31.929688 C 18.226562 31.046875 19.542969 30.492188 21 30.265625 L 21.109375 30.265625 L 21.109375 24.9375 C 21.394531 24.753906 21.542969 24.496094 21.554688 24.160156 Z M 13.414062 27.375 C 13.414062 27.5 13.371094 27.609375 13.28125 27.699219 C 13.191406 27.789062 13.082031 27.832031 12.957031 27.832031 C 12.828125 27.832031 12.71875 27.789062 12.632812 27.699219 C 12.542969 27.609375 12.496094 27.5 12.496094 27.375 C 12.496094 27.246094 12.539062 27.136719 12.628906 27.046875 C 12.71875 26.957031 12.828125 26.914062 12.953125 26.914062 C 13.082031 26.914062 13.191406 26.957031 13.28125 27.046875 C 13.371094 27.136719 13.414062 27.246094 13.414062 27.375 Z M 21.230469 24.160156 C 21.230469 24.289062 21.1875 24.398438 21.097656 24.488281 C 21.007812 24.574219 20.898438 24.617188 20.773438 24.617188 C 20.648438 24.617188 20.539062 24.574219 20.449219 24.488281 C 20.359375 24.398438 20.316406 24.289062 20.316406 24.160156 C 20.296875 24.023438 20.335938 23.902344 20.425781 23.800781 C 20.515625 23.695312 20.632812 23.644531 20.769531 23.644531 C 20.910156 23.644531 21.023438 23.695312 21.117188 23.800781 C 21.207031 23.902344 21.242188 24.023438 21.226562 24.160156 Z M 21.230469 24.160156 " fill-opacity="1" fill-rule="nonzero"/></g><g clip-path="url(#0991622146)"><path fill="#1ed7fe" d="M 12.421875 50.191406 C 12.28125 50.328125 12.207031 50.496094 12.191406 50.691406 C 12.175781 50.882812 12.230469 51.058594 12.34375 51.21875 C 12.460938 51.375 12.617188 51.472656 12.808594 51.515625 C 13 51.554688 13.179688 51.527344 13.351562 51.433594 C 13.523438 51.339844 13.640625 51.203125 13.707031 51.019531 C 13.777344 50.835938 13.777344 50.652344 13.707031 50.46875 L 16.519531 47.660156 L 17.113281 47.078125 C 18.136719 47.753906 19.246094 48.214844 20.449219 48.460938 L 20.449219 53.300781 C 20.339844 53.347656 20.246094 53.421875 20.167969 53.511719 C 20.09375 53.605469 20.039062 53.710938 20.011719 53.828125 C 19.980469 53.945312 19.980469 54.0625 20.007812 54.179688 C 20.03125 54.296875 20.082031 54.402344 20.15625 54.496094 C 20.230469 54.59375 20.320312 54.664062 20.429688 54.71875 C 20.539062 54.769531 20.652344 54.796875 20.773438 54.796875 C 20.894531 54.796875 21.007812 54.769531 21.113281 54.71875 C 21.222656 54.664062 21.316406 54.59375 21.390625 54.496094 C 21.464844 54.402344 21.511719 54.296875 21.539062 54.179688 C 21.5625 54.0625 21.5625 53.945312 21.535156 53.828125 C 21.503906 53.710938 21.453125 53.605469 21.375 53.511719 C 21.300781 53.421875 21.207031 53.347656 21.097656 53.300781 L 21.097656 47.890625 L 21.085938 47.890625 C 19.621094 47.671875 18.296875 47.125 17.105469 46.25 L 17.046875 46.191406 L 16.574219 46.664062 L 13.386719 49.863281 L 13.289062 49.964844 C 12.960938 49.890625 12.671875 49.964844 12.421875 50.191406 Z M 20.441406 53.679688 C 20.53125 53.589844 20.640625 53.546875 20.765625 53.546875 C 20.894531 53.546875 21 53.589844 21.089844 53.679688 C 21.148438 53.730469 21.1875 53.796875 21.210938 53.871094 C 21.234375 53.941406 21.238281 54.019531 21.226562 54.09375 C 21.210938 54.171875 21.179688 54.238281 21.132812 54.300781 C 21.082031 54.359375 21.023438 54.40625 20.953125 54.433594 C 20.878906 54.464844 20.804688 54.476562 20.730469 54.46875 C 20.652344 54.460938 20.582031 54.433594 20.515625 54.390625 C 20.453125 54.347656 20.402344 54.292969 20.367188 54.222656 C 20.332031 54.15625 20.3125 54.082031 20.316406 54.003906 C 20.3125 53.878906 20.359375 53.769531 20.449219 53.679688 Z M 12.648438 50.421875 C 12.738281 50.332031 12.847656 50.285156 12.976562 50.285156 C 13.101562 50.285156 13.210938 50.332031 13.296875 50.421875 C 13.386719 50.511719 13.433594 50.617188 13.433594 50.746094 C 13.433594 50.871094 13.386719 50.980469 13.296875 51.070312 C 13.210938 51.160156 13.101562 51.207031 12.972656 51.207031 C 12.847656 51.207031 12.738281 51.160156 12.648438 51.070312 C 12.558594 50.980469 12.515625 50.871094 12.515625 50.746094 C 12.515625 50.617188 12.558594 50.511719 12.648438 50.421875 Z M 12.648438 50.421875 " fill-opacity="1" fill-rule="nonzero"/></g><path fill="#1ed7fe" d="M 6.691406 40.675781 C 6.691406 40.863281 6.746094 41.027344 6.863281 41.167969 C 6.980469 41.3125 7.125 41.402344 7.308594 41.441406 C 7.488281 41.480469 7.660156 41.460938 7.824219 41.375 C 7.988281 41.292969 8.109375 41.167969 8.183594 41 L 12.996094 41 C 13.242188 42.203125 13.703125 43.316406 14.382812 44.34375 L 13.789062 44.9375 L 10.957031 47.757812 C 10.84375 47.71875 10.730469 47.703125 10.609375 47.714844 C 10.492188 47.726562 10.378906 47.761719 10.277344 47.824219 C 10.175781 47.886719 10.089844 47.96875 10.027344 48.070312 C 9.960938 48.171875 9.921875 48.28125 9.910156 48.402344 C 9.894531 48.519531 9.90625 48.636719 9.945312 48.75 C 9.984375 48.863281 10.046875 48.960938 10.132812 49.046875 C 10.21875 49.132812 10.316406 49.191406 10.429688 49.230469 C 10.542969 49.269531 10.660156 49.285156 10.78125 49.269531 C 10.898438 49.253906 11.007812 49.214844 11.109375 49.148438 C 11.210938 49.085938 11.292969 49 11.355469 48.898438 C 11.417969 48.796875 11.453125 48.683594 11.464844 48.566406 C 11.476562 48.445312 11.460938 48.328125 11.417969 48.21875 L 11.578125 48.054688 L 14.765625 44.871094 L 15.242188 44.394531 L 15.230469 44.394531 C 14.351562 43.21875 13.800781 41.90625 13.574219 40.457031 L 13.574219 40.332031 L 12.882812 40.332031 L 8.382812 40.34375 L 8.242188 40.34375 C 8.066406 40.058594 7.808594 39.90625 7.472656 39.890625 C 7.253906 39.890625 7.070312 39.96875 6.917969 40.121094 C 6.765625 40.277344 6.691406 40.460938 6.691406 40.675781 Z M 11.144531 48.492188 C 11.144531 48.621094 11.097656 48.726562 11.007812 48.816406 C 10.917969 48.894531 10.8125 48.933594 10.691406 48.929688 C 10.570312 48.925781 10.46875 48.882812 10.382812 48.796875 C 10.296875 48.710938 10.25 48.609375 10.246094 48.488281 C 10.242188 48.367188 10.277344 48.261719 10.359375 48.171875 C 10.449219 48.082031 10.558594 48.039062 10.683594 48.039062 C 10.808594 48.039062 10.917969 48.082031 11.007812 48.171875 C 11.097656 48.261719 11.140625 48.367188 11.144531 48.492188 Z M 7.011719 40.675781 C 7.011719 40.472656 7.105469 40.328125 7.296875 40.25 C 7.484375 40.171875 7.652344 40.203125 7.796875 40.351562 C 7.886719 40.441406 7.929688 40.550781 7.929688 40.675781 C 7.929688 40.800781 7.886719 40.910156 7.796875 41 C 7.652344 41.144531 7.488281 41.179688 7.296875 41.101562 C 7.109375 41.023438 7.011719 40.882812 7.011719 40.675781 Z M 7.011719 40.675781 " fill-opacity="1" fill-rule="nonzero"/><g clip-path="url(#6a5e317943)"><path fill="#bbf2fa" d="M 5.285156 39.054688 C 5.285156 39.242188 5.34375 39.402344 5.460938 39.546875 C 5.574219 39.691406 5.722656 39.78125 5.902344 39.820312 C 6.082031 39.859375 6.253906 39.835938 6.417969 39.753906 C 6.585938 39.671875 6.703125 39.546875 6.78125 39.378906 L 15.894531 39.378906 C 15.972656 40.925781 16.535156 42.269531 17.582031 43.410156 L 17.214844 43.773438 L 15.394531 45.597656 L 12.246094 48.71875 L 11.117188 49.859375 C 11.003906 49.816406 10.890625 49.800781 10.769531 49.8125 C 10.648438 49.824219 10.535156 49.859375 10.433594 49.921875 C 10.332031 49.984375 10.246094 50.066406 10.179688 50.167969 C 10.113281 50.269531 10.074219 50.378906 10.058594 50.5 C 10.046875 50.617188 10.058594 50.734375 10.097656 50.847656 C 10.136719 50.964844 10.199219 51.0625 10.28125 51.148438 C 10.367188 51.234375 10.46875 51.296875 10.582031 51.335938 C 10.695312 51.375 10.8125 51.390625 10.933594 51.375 C 11.050781 51.359375 11.164062 51.320312 11.265625 51.253906 C 11.367188 51.191406 11.449219 51.105469 11.511719 51.003906 C 11.574219 50.898438 11.609375 50.789062 11.621094 50.667969 C 11.632812 50.546875 11.617188 50.433594 11.574219 50.320312 L 12.714844 49.183594 L 15.84375 46.058594 L 17.667969 44.238281 L 18.03125 43.871094 C 18.910156 44.667969 19.929688 45.175781 21.09375 45.40625 L 21.09375 44.632812 C 20.460938 44.488281 19.871094 44.246094 19.320312 43.90625 C 18.769531 43.5625 18.292969 43.136719 17.886719 42.628906 C 17.480469 42.125 17.171875 41.566406 16.957031 40.953125 C 16.742188 40.34375 16.632812 39.714844 16.632812 39.066406 C 16.632812 38.417969 16.742188 37.785156 16.957031 37.175781 C 17.171875 36.5625 17.480469 36.003906 17.886719 35.5 C 18.292969 34.992188 18.769531 34.570312 19.320312 34.226562 C 19.871094 33.882812 20.460938 33.640625 21.09375 33.5 L 21.09375 32.714844 C 19.9375 32.941406 18.921875 33.449219 18.046875 34.238281 L 15.859375 32.050781 L 12.722656 28.933594 L 11.589844 27.800781 C 11.632812 27.6875 11.648438 27.570312 11.636719 27.449219 C 11.625 27.332031 11.589844 27.21875 11.527344 27.117188 C 11.464844 27.011719 11.382812 26.925781 11.28125 26.863281 C 11.179688 26.796875 11.070312 26.757812 10.949219 26.742188 C 10.828125 26.726562 10.710938 26.738281 10.597656 26.777344 C 10.484375 26.816406 10.382812 26.878906 10.300781 26.964844 C 10.214844 27.050781 10.152344 27.148438 10.113281 27.261719 C 10.070312 27.378906 10.058594 27.496094 10.074219 27.613281 C 10.085938 27.734375 10.128906 27.84375 10.191406 27.945312 C 10.257812 28.046875 10.339844 28.128906 10.445312 28.191406 C 10.546875 28.253906 10.660156 28.292969 10.78125 28.304688 C 10.898438 28.316406 11.015625 28.300781 11.128906 28.257812 L 12.269531 29.394531 L 15.402344 32.511719 L 17.226562 34.335938 L 17.582031 34.699219 C 16.53125 35.839844 15.964844 37.1875 15.890625 38.738281 L 6.773438 38.738281 C 6.695312 38.574219 6.574219 38.453125 6.414062 38.375 C 6.25 38.296875 6.082031 38.273438 5.902344 38.3125 C 5.726562 38.351562 5.582031 38.4375 5.464844 38.578125 C 5.351562 38.714844 5.289062 38.875 5.285156 39.054688 Z M 11.3125 27.527344 C 11.3125 27.652344 11.265625 27.761719 11.179688 27.847656 C 11.089844 27.9375 10.980469 27.984375 10.855469 27.984375 C 10.65625 27.980469 10.515625 27.886719 10.4375 27.703125 C 10.363281 27.515625 10.394531 27.351562 10.53125 27.207031 C 10.675781 27.0625 10.84375 27.03125 11.03125 27.109375 C 11.21875 27.1875 11.3125 27.328125 11.3125 27.535156 Z M 11.300781 50.59375 C 11.300781 50.796875 11.207031 50.9375 11.015625 51.019531 C 10.828125 51.097656 10.660156 51.0625 10.515625 50.917969 C 10.429688 50.828125 10.382812 50.71875 10.382812 50.59375 C 10.382812 50.46875 10.429688 50.359375 10.515625 50.269531 C 10.605469 50.179688 10.714844 50.132812 10.84375 50.136719 C 10.96875 50.136719 11.078125 50.179688 11.164062 50.269531 C 11.253906 50.359375 11.300781 50.464844 11.300781 50.59375 Z M 5.609375 39.054688 C 5.589844 38.917969 5.628906 38.800781 5.71875 38.695312 C 5.8125 38.589844 5.925781 38.539062 6.066406 38.539062 C 6.203125 38.539062 6.316406 38.589844 6.410156 38.695312 C 6.5 38.800781 6.539062 38.917969 6.519531 39.054688 C 6.519531 39.183594 6.476562 39.289062 6.386719 39.378906 C 6.242188 39.519531 6.078125 39.550781 5.890625 39.472656 C 5.707031 39.398438 5.613281 39.257812 5.609375 39.054688 Z M 5.609375 39.054688 " fill-opacity="1" fill-rule="nonzero"/></g><path fill="#1ed7fe" d="M 14.382812 33.800781 C 13.703125 34.824219 13.242188 35.933594 12.996094 37.136719 L 8.160156 37.136719 C 8.109375 37.027344 8.039062 36.933594 7.945312 36.855469 C 7.851562 36.777344 7.746094 36.726562 7.628906 36.699219 C 7.511719 36.667969 7.394531 36.667969 7.277344 36.691406 C 7.160156 36.71875 7.054688 36.769531 6.957031 36.84375 C 6.863281 36.917969 6.789062 37.007812 6.738281 37.117188 C 6.683594 37.226562 6.65625 37.339844 6.65625 37.460938 C 6.65625 37.582031 6.683594 37.695312 6.738281 37.804688 C 6.789062 37.914062 6.863281 38.003906 6.957031 38.078125 C 7.054688 38.152344 7.160156 38.203125 7.277344 38.230469 C 7.394531 38.253906 7.511719 38.253906 7.628906 38.222656 C 7.746094 38.195312 7.851562 38.140625 7.945312 38.066406 C 8.039062 37.988281 8.109375 37.894531 8.160156 37.785156 L 13.5625 37.785156 L 13.5625 37.78125 C 13.777344 36.316406 14.324219 34.992188 15.203125 33.804688 L 15.257812 33.746094 L 14.765625 33.257812 L 11.484375 29.976562 C 11.558594 29.648438 11.484375 29.359375 11.257812 29.109375 C 11.117188 28.972656 10.953125 28.894531 10.757812 28.882812 C 10.5625 28.867188 10.386719 28.917969 10.230469 29.035156 C 10.074219 29.152344 9.976562 29.308594 9.933594 29.496094 C 9.894531 29.6875 9.921875 29.871094 10.015625 30.039062 C 10.109375 30.210938 10.246094 30.332031 10.429688 30.398438 C 10.613281 30.46875 10.796875 30.464844 10.976562 30.398438 Z M 11.160156 29.664062 C 11.160156 29.792969 11.117188 29.898438 11.027344 29.988281 C 10.921875 30.09375 10.792969 30.136719 10.644531 30.117188 C 10.496094 30.09375 10.386719 30.019531 10.308594 29.890625 C 10.234375 29.761719 10.226562 29.625 10.285156 29.488281 C 10.34375 29.351562 10.445312 29.261719 10.589844 29.222656 C 10.734375 29.183594 10.867188 29.210938 10.984375 29.304688 C 11.101562 29.394531 11.160156 29.515625 11.160156 29.664062 Z M 7.902344 37.460938 C 7.902344 37.585938 7.859375 37.695312 7.769531 37.785156 C 7.679688 37.875 7.574219 37.921875 7.445312 37.921875 C 7.308594 37.9375 7.1875 37.902344 7.085938 37.808594 C 6.980469 37.71875 6.929688 37.601562 6.929688 37.464844 C 6.929688 37.328125 6.980469 37.210938 7.085938 37.121094 C 7.1875 37.027344 7.308594 36.992188 7.445312 37.007812 C 7.574219 37.011719 7.679688 37.054688 7.769531 37.144531 C 7.859375 37.234375 7.902344 37.339844 7.902344 37.46875 Z M 7.902344 37.460938 " fill-opacity="1" fill-rule="nonzero"/><g clip-path="url(#026e494610)"><path fill="#bbf2fa" d="M 22.765625 34.699219 C 22.601562 34.671875 22.433594 34.652344 22.261719 34.648438 C 22.195312 34.644531 22.128906 34.640625 22.0625 34.640625 C 20.730469 34.640625 19.535156 35.230469 18.726562 36.164062 C 18.050781 36.9375 17.640625 37.941406 17.632812 39.042969 C 17.617188 41.46875 19.582031 43.46875 22.007812 43.5 C 23.875 43.519531 25.484375 42.378906 26.15625 40.757812 C 26.371094 40.238281 26.492188 39.667969 26.492188 39.070312 C 26.492188 36.867188 24.875 35.035156 22.765625 34.699219 Z M 21.765625 43.132812 C 19.738281 42.988281 18.105469 41.332031 17.996094 39.300781 C 17.941406 38.285156 18.257812 37.34375 18.820312 36.605469 C 18.824219 36.601562 18.871094 36.609375 18.894531 36.644531 C 18.941406 36.710938 18.832031 36.816406 18.769531 36.996094 C 18.699219 37.199219 18.714844 37.433594 18.773438 37.453125 C 18.804688 37.460938 18.847656 37.414062 18.867188 37.394531 C 18.902344 37.347656 18.890625 37.316406 18.925781 37.257812 C 18.953125 37.207031 19.003906 37.15625 19.027344 37.167969 C 19.058594 37.183594 18.976562 37.316406 18.984375 37.519531 C 18.988281 37.625 19.015625 37.703125 19.042969 37.773438 C 19.078125 37.871094 19.121094 37.992188 19.222656 38.089844 C 19.339844 38.210938 19.40625 38.167969 19.5625 38.316406 C 19.632812 38.382812 19.628906 38.398438 19.703125 38.460938 C 19.746094 38.496094 19.824219 38.5625 19.945312 38.621094 C 20.078125 38.679688 20.117188 38.664062 20.15625 38.714844 C 20.207031 38.78125 20.207031 38.890625 20.167969 38.96875 C 20.101562 39.101562 19.96875 39.070312 19.898438 39.203125 C 19.847656 39.308594 19.882812 39.425781 19.894531 39.472656 C 19.90625 39.507812 19.929688 39.59375 20.003906 39.660156 C 20.097656 39.746094 20.164062 39.703125 20.234375 39.769531 C 20.308594 39.839844 20.261719 39.917969 20.316406 40.152344 C 20.351562 40.308594 20.371094 40.390625 20.4375 40.457031 C 20.550781 40.566406 20.660156 40.503906 20.742188 40.605469 C 20.773438 40.640625 20.792969 40.691406 20.78125 40.972656 C 20.761719 41.316406 20.730469 41.304688 20.75 41.414062 C 20.777344 41.578125 20.835938 41.574219 20.925781 41.863281 C 20.949219 41.929688 20.976562 42.019531 21 42.144531 C 21.042969 42.371094 21.023438 42.457031 21.101562 42.53125 C 21.148438 42.582031 21.230469 42.621094 21.304688 42.601562 C 21.363281 42.585938 21.414062 42.535156 21.515625 42.261719 C 21.636719 41.929688 21.59375 41.914062 21.683594 41.753906 C 21.773438 41.585938 21.835938 41.566406 21.890625 41.394531 C 21.9375 41.253906 21.90625 41.226562 21.957031 41.148438 C 22.035156 41.011719 22.148438 41.035156 22.308594 40.902344 C 22.355469 40.867188 22.492188 40.753906 22.550781 40.570312 C 22.613281 40.371094 22.515625 40.277344 22.609375 40.089844 C 22.660156 39.980469 22.703125 39.996094 22.734375 39.898438 C 22.796875 39.707031 22.675781 39.511719 22.648438 39.472656 C 22.53125 39.300781 22.355469 39.238281 22.320312 39.226562 C 22.125 39.164062 22.046875 39.25 21.832031 39.167969 C 21.773438 39.144531 21.632812 39.09375 21.621094 39 C 21.609375 38.917969 21.703125 38.875 21.6875 38.792969 C 21.675781 38.75 21.632812 38.71875 21.546875 38.664062 C 21.390625 38.5625 21.324219 38.570312 21.261719 38.484375 C 21.214844 38.421875 21.242188 38.402344 21.203125 38.355469 C 21.109375 38.246094 20.886719 38.257812 20.746094 38.296875 C 20.59375 38.339844 20.53125 38.414062 20.421875 38.382812 C 20.375 38.367188 20.367188 38.347656 20.335938 38.332031 C 20.335938 38.332031 20.324219 38.328125 20.300781 38.320312 C 20.246094 38.304688 20.125 38.425781 20.003906 38.429688 C 19.882812 38.433594 19.773438 38.320312 19.746094 38.285156 C 19.742188 38.277344 19.734375 38.269531 19.734375 38.269531 C 19.722656 38.25 19.714844 38.222656 19.6875 38.128906 C 19.605469 37.875 19.601562 37.863281 19.585938 37.847656 C 19.5 37.75 19.40625 37.796875 19.355469 37.710938 C 19.304688 37.628906 19.332031 37.507812 19.378906 37.433594 C 19.441406 37.335938 19.511719 37.351562 19.570312 37.238281 C 19.589844 37.203125 19.582031 37.199219 19.625 37.09375 C 19.675781 36.96875 19.691406 36.957031 19.703125 36.953125 C 19.765625 36.929688 19.855469 37.007812 19.898438 37.058594 C 19.953125 37.125 19.945312 37.160156 19.988281 37.210938 C 20.0625 37.300781 20.199219 37.34375 20.234375 37.308594 C 20.261719 37.285156 20.214844 37.238281 20.203125 37.101562 C 20.199219 37.0625 20.195312 37 20.210938 36.921875 C 20.214844 36.894531 20.234375 36.820312 20.308594 36.710938 C 20.367188 36.632812 20.492188 36.453125 20.71875 36.382812 C 20.902344 36.328125 21.011719 36.382812 21.066406 36.304688 C 21.113281 36.242188 21.039062 36.160156 21.105469 36.050781 C 21.117188 36.03125 21.140625 35.992188 21.1875 35.976562 C 21.234375 35.960938 21.273438 35.980469 21.324219 35.996094 C 21.386719 36.015625 21.546875 36.054688 21.585938 36.011719 C 21.628906 35.960938 21.539062 35.769531 21.382812 35.671875 C 21.359375 35.65625 21.199219 35.554688 21.011719 35.617188 C 20.984375 35.621094 20.839844 35.667969 20.777344 35.796875 C 20.742188 35.859375 20.761719 35.882812 20.730469 35.914062 C 20.632812 36.015625 20.28125 35.921875 20.261719 35.789062 C 20.246094 35.6875 20.433594 35.582031 20.46875 35.566406 C 20.597656 35.492188 20.738281 35.484375 20.835938 35.480469 C 20.941406 35.476562 20.925781 35.492188 20.992188 35.484375 C 21.148438 35.464844 21.273438 35.382812 21.386719 35.292969 C 21.46875 35.230469 21.535156 35.152344 21.605469 35.171875 C 21.652344 35.183594 21.683594 35.226562 21.703125 35.265625 C 21.769531 35.367188 21.742188 35.429688 21.785156 35.457031 C 21.84375 35.496094 21.976562 35.429688 22.050781 35.328125 C 22.125 35.234375 22.109375 35.152344 22.140625 35.003906 C 22.140625 35.003906 22.140625 35 22.140625 35 C 22.382812 35.003906 22.621094 35.027344 22.851562 35.074219 C 23.074219 35.117188 23.265625 35.269531 23.359375 35.476562 L 23.363281 35.480469 C 23.378906 35.515625 23.464844 35.714844 23.398438 35.769531 C 23.335938 35.824219 23.171875 35.699219 23.113281 35.761719 C 23.078125 35.796875 23.089844 35.886719 23.136719 35.9375 C 23.210938 36.019531 23.339844 35.945312 23.417969 36.03125 C 23.449219 36.070312 23.453125 36.117188 23.453125 36.1875 C 23.460938 36.339844 23.386719 36.402344 23.425781 36.480469 C 23.449219 36.523438 23.488281 36.542969 23.523438 36.5625 C 23.648438 36.621094 23.828125 36.585938 23.914062 36.484375 C 23.988281 36.398438 23.933594 36.339844 24.003906 36.214844 C 24.078125 36.085938 24.226562 35.984375 24.296875 36.019531 C 24.375 36.0625 24.296875 36.238281 24.410156 36.34375 C 24.460938 36.394531 24.527344 36.402344 24.628906 36.414062 C 24.789062 36.433594 24.84375 36.382812 24.953125 36.429688 C 24.980469 36.441406 25.042969 36.464844 25.085938 36.53125 C 25.089844 36.542969 25.15625 36.644531 25.117188 36.738281 C 25.074219 36.84375 24.925781 36.863281 24.835938 36.875 C 24.78125 36.878906 24.585938 36.902344 24.519531 36.800781 C 24.472656 36.730469 24.53125 36.648438 24.476562 36.597656 C 24.453125 36.570312 24.414062 36.566406 24.289062 36.574219 C 24.140625 36.582031 24.066406 36.589844 23.984375 36.613281 C 23.839844 36.652344 23.5 36.75 23.460938 36.972656 C 23.441406 37.089844 23.503906 37.226562 23.585938 37.308594 C 23.65625 37.375 23.707031 37.367188 23.742188 37.4375 C 23.808594 37.550781 23.742188 37.695312 23.734375 37.714844 C 23.671875 37.855469 23.554688 37.886719 23.570312 37.960938 C 23.578125 38.003906 23.632812 38.03125 23.6875 38.054688 C 23.855469 38.132812 23.96875 38.078125 24.003906 38.140625 C 24.039062 38.195312 23.957031 38.25 23.984375 38.363281 C 23.996094 38.398438 24.003906 38.394531 24.054688 38.496094 C 24.121094 38.621094 24.105469 38.625 24.132812 38.65625 C 24.152344 38.675781 24.289062 38.75 24.457031 38.691406 C 24.589844 38.640625 24.613281 38.550781 24.6875 38.566406 C 24.746094 38.578125 24.742188 38.636719 24.808594 38.6875 C 24.933594 38.78125 25.117188 38.636719 25.179688 38.707031 C 25.246094 38.78125 25.042969 38.984375 25.128906 39.144531 C 25.167969 39.222656 25.238281 39.226562 25.246094 39.304688 C 25.253906 39.359375 25.222656 39.382812 25.183594 39.488281 C 25.183594 39.488281 25.15625 39.5625 25.140625 39.667969 C 25.101562 39.898438 25.222656 39.976562 25.183594 40.1875 C 25.179688 40.21875 25.164062 40.289062 25.140625 40.371094 C 25.128906 40.410156 25.117188 40.445312 25.101562 40.492188 C 25.070312 40.578125 25.054688 40.585938 25.035156 40.644531 C 25.015625 40.703125 25.003906 40.742188 24.992188 40.820312 C 24.960938 40.996094 24.945312 41.085938 24.972656 41.15625 C 24.996094 41.222656 25.0625 41.335938 25.152344 41.34375 C 25.285156 41.351562 25.339844 41.121094 25.523438 40.949219 C 25.589844 40.882812 25.664062 40.84375 25.742188 40.816406 C 25.046875 42.273438 23.511719 43.253906 21.765625 43.132812 Z M 21.765625 43.132812 " fill-opacity="1" fill-rule="nonzero"/></g><g fill="#1ed7fe" fill-opacity="1"><g transform="translate(28.324654, 40.803449)"><g><path d="M 0.421875 0 L 0.421875 -9.59375 L 3.34375 -9.59375 L 4.15625 -3.75 L 4.953125 -9.59375 L 7.90625 -9.59375 L 7.90625 0 L 6.15625 0 L 6.15625 -6.921875 L 5.046875 0 L 3.328125 0 L 2.15625 -6.921875 L 2.15625 0 Z M 0.421875 0 "/></g></g></g><g fill="#1ed7fe" fill-opacity="1"><g transform="translate(37.031045, 40.803449)"><g><path d="M 0.171875 0 L 1.09375 -9.59375 L 4.34375 -9.59375 L 5.265625 0 L 3.4375 0 L 3.3125 -1.546875 L 2.140625 -1.546875 L 2.03125 0 Z M 2.296875 -3.078125 L 3.15625 -3.078125 L 2.734375 -7.96875 L 2.640625 -7.96875 Z M 2.296875 -3.078125 "/></g></g></g><g fill="#1ed7fe" fill-opacity="1"><g transform="translate(42.824185, 40.803449)"><g><path d="M 1.25 0 L 1.25 -7.75 L 0.109375 -7.75 L 0.109375 -9.59375 L 4.3125 -9.59375 L 4.3125 -7.75 L 3.171875 -7.75 L 3.171875 0 Z M 1.25 0 "/></g></g></g><g fill="#1ed7fe" fill-opacity="1"><g transform="translate(47.62392, 40.803449)"><g><path d="M 2.65625 0.09375 C 1.957031 0.09375 1.394531 -0.125 0.96875 -0.5625 C 0.550781 -1.007812 0.34375 -1.613281 0.34375 -2.375 L 0.34375 -6.796875 C 0.34375 -7.753906 0.53125 -8.472656 0.90625 -8.953125 C 1.289062 -9.441406 1.890625 -9.6875 2.703125 -9.6875 C 3.410156 -9.6875 3.976562 -9.492188 4.40625 -9.109375 C 4.84375 -8.722656 5.0625 -8.160156 5.0625 -7.421875 L 5.0625 -5.78125 L 3.15625 -5.78125 L 3.15625 -7.1875 C 3.15625 -7.46875 3.117188 -7.660156 3.046875 -7.765625 C 2.984375 -7.867188 2.867188 -7.921875 2.703125 -7.921875 C 2.535156 -7.921875 2.414062 -7.859375 2.34375 -7.734375 C 2.28125 -7.617188 2.25 -7.445312 2.25 -7.21875 L 2.25 -2.40625 C 2.25 -2.144531 2.285156 -1.957031 2.359375 -1.84375 C 2.441406 -1.726562 2.554688 -1.671875 2.703125 -1.671875 C 3.003906 -1.671875 3.15625 -1.914062 3.15625 -2.40625 L 3.15625 -4.140625 L 5.078125 -4.140625 L 5.078125 -2.328125 C 5.078125 -0.710938 4.269531 0.09375 2.65625 0.09375 Z M 2.65625 0.09375 "/></g></g></g><g fill="#1ed7fe" fill-opacity="1"><g transform="translate(53.294281, 40.803449)"><g><path d="M 2.71875 0.09375 C 1.9375 0.09375 1.34375 -0.140625 0.9375 -0.609375 C 0.539062 -1.085938 0.34375 -1.753906 0.34375 -2.609375 L 0.34375 -7.1875 C 0.34375 -8.007812 0.539062 -8.628906 0.9375 -9.046875 C 1.34375 -9.472656 1.9375 -9.6875 2.71875 -9.6875 C 3.488281 -9.6875 4.070312 -9.472656 4.46875 -9.046875 C 4.875 -8.628906 5.078125 -8.007812 5.078125 -7.1875 L 5.078125 -2.609375 C 5.078125 -1.742188 4.875 -1.078125 4.46875 -0.609375 C 4.070312 -0.140625 3.488281 0.09375 2.71875 0.09375 Z M 2.71875 -1.671875 C 2.882812 -1.671875 3 -1.742188 3.0625 -1.890625 C 3.125 -2.046875 3.15625 -2.257812 3.15625 -2.53125 L 3.15625 -7.21875 C 3.15625 -7.425781 3.125 -7.59375 3.0625 -7.71875 C 3.007812 -7.851562 2.894531 -7.921875 2.71875 -7.921875 C 2.40625 -7.921875 2.25 -7.675781 2.25 -7.1875 L 2.25 -2.515625 C 2.25 -2.234375 2.28125 -2.019531 2.34375 -1.875 C 2.414062 -1.738281 2.539062 -1.671875 2.71875 -1.671875 Z M 2.71875 -1.671875 "/></g></g></g><g fill="#1ed7fe" fill-opacity="1"><g transform="translate(59.098584, 40.803449)"><g><path d="M 0.421875 0 L 0.421875 -9.59375 L 3.34375 -9.59375 L 4.15625 -3.75 L 4.953125 -9.59375 L 7.90625 -9.59375 L 7.90625 0 L 6.15625 0 L 6.15625 -6.921875 L 5.046875 0 L 3.328125 0 L 2.15625 -6.921875 L 2.15625 0 Z M 0.421875 0 "/></g></g></g><g fill="#5ce1e6" fill-opacity="1"><g transform="translate(30.98928, 51.411682)"><g><path d="M 0.609375 -2.265625 L 0.609375 -1.40625 L 1.53125 -1.40625 L 1.53125 -1.140625 L 0.609375 -1.140625 L 0.609375 -0.265625 L 1.640625 -0.265625 L 1.640625 0 L 0.28125 0 L 0.28125 -2.53125 L 1.640625 -2.53125 L 1.640625 -2.265625 Z M 0.609375 -2.265625 "/></g></g></g><g fill="#5ce1e6" fill-opacity="1"><g transform="translate(33.938931, 51.411682)"><g><path d="M 2.265625 0 L 1.9375 0 L 0.609375 -2.015625 L 0.609375 0 L 0.28125 0 L 0.28125 -2.53125 L 0.609375 -2.53125 L 1.9375 -0.515625 L 1.9375 -2.53125 L 2.265625 -2.53125 Z M 2.265625 0 "/></g></g></g><g fill="#5ce1e6" fill-opacity="1"><g transform="translate(37.577842, 51.411682)"><g><path d="M 2.1875 -1.796875 C 2.125 -1.941406 2.023438 -2.054688 1.890625 -2.140625 C 1.753906 -2.222656 1.597656 -2.265625 1.421875 -2.265625 C 1.242188 -2.265625 1.082031 -2.222656 0.9375 -2.140625 C 0.800781 -2.054688 0.691406 -1.9375 0.609375 -1.78125 C 0.535156 -1.632812 0.5 -1.460938 0.5 -1.265625 C 0.5 -1.066406 0.535156 -0.890625 0.609375 -0.734375 C 0.691406 -0.585938 0.800781 -0.472656 0.9375 -0.390625 C 1.082031 -0.316406 1.242188 -0.28125 1.421875 -0.28125 C 1.671875 -0.28125 1.875 -0.351562 2.03125 -0.5 C 2.1875 -0.644531 2.28125 -0.84375 2.3125 -1.09375 L 1.3125 -1.09375 L 1.3125 -1.359375 L 2.671875 -1.359375 L 2.671875 -1.109375 C 2.648438 -0.898438 2.582031 -0.707031 2.46875 -0.53125 C 2.351562 -0.363281 2.207031 -0.226562 2.03125 -0.125 C 1.851562 -0.03125 1.648438 0.015625 1.421875 0.015625 C 1.191406 0.015625 0.976562 -0.0351562 0.78125 -0.140625 C 0.59375 -0.253906 0.441406 -0.40625 0.328125 -0.59375 C 0.210938 -0.789062 0.15625 -1.015625 0.15625 -1.265625 C 0.15625 -1.515625 0.210938 -1.734375 0.328125 -1.921875 C 0.441406 -2.117188 0.59375 -2.273438 0.78125 -2.390625 C 0.976562 -2.503906 1.191406 -2.5625 1.421875 -2.5625 C 1.691406 -2.5625 1.929688 -2.492188 2.140625 -2.359375 C 2.347656 -2.222656 2.5 -2.035156 2.59375 -1.796875 Z M 2.1875 -1.796875 "/></g></g></g><g fill="#5ce1e6" fill-opacity="1"><g transform="translate(41.488832, 51.411682)"><g><path d="M 0.609375 -2.53125 L 0.609375 0 L 0.28125 0 L 0.28125 -2.53125 Z M 0.609375 -2.53125 "/></g></g></g><g fill="#5ce1e6" fill-opacity="1"><g transform="translate(43.469887, 51.411682)"><g><path d="M 2.265625 0 L 1.9375 0 L 0.609375 -2.015625 L 0.609375 0 L 0.28125 0 L 0.28125 -2.53125 L 0.609375 -2.53125 L 1.9375 -0.515625 L 1.9375 -2.53125 L 2.265625 -2.53125 Z M 2.265625 0 "/></g></g></g><g fill="#5ce1e6" fill-opacity="1"><g transform="translate(47.108798, 51.411682)"><g><path d="M 0.609375 -2.265625 L 0.609375 -1.40625 L 1.53125 -1.40625 L 1.53125 -1.140625 L 0.609375 -1.140625 L 0.609375 -0.265625 L 1.640625 -0.265625 L 1.640625 0 L 0.28125 0 L 0.28125 -2.53125 L 1.640625 -2.53125 L 1.640625 -2.265625 Z M 0.609375 -2.265625 "/></g></g></g><g fill="#5ce1e6" fill-opacity="1"><g transform="translate(50.05845, 51.411682)"><g><path d="M 0.609375 -2.265625 L 0.609375 -1.40625 L 1.53125 -1.40625 L 1.53125 -1.140625 L 0.609375 -1.140625 L 0.609375 -0.265625 L 1.640625 -0.265625 L 1.640625 0 L 0.28125 0 L 0.28125 -2.53125 L 1.640625 -2.53125 L 1.640625 -2.265625 Z M 0.609375 -2.265625 "/></g></g></g><g fill="#5ce1e6" fill-opacity="1"><g transform="translate(53.008101, 51.411682)"><g><path d="M 1.609375 0 L 1 -1.03125 L 0.609375 -1.03125 L 0.609375 0 L 0.28125 0 L 0.28125 -2.53125 L 1.09375 -2.53125 C 1.28125 -2.53125 1.441406 -2.492188 1.578125 -2.421875 C 1.710938 -2.359375 1.8125 -2.269531 1.875 -2.15625 C 1.9375 -2.050781 1.96875 -1.925781 1.96875 -1.78125 C 1.96875 -1.601562 1.914062 -1.445312 1.8125 -1.3125 C 1.71875 -1.1875 1.570312 -1.101562 1.375 -1.0625 L 2 0 Z M 0.609375 -1.296875 L 1.09375 -1.296875 C 1.269531 -1.296875 1.398438 -1.335938 1.484375 -1.421875 C 1.578125 -1.515625 1.625 -1.632812 1.625 -1.78125 C 1.625 -1.9375 1.578125 -2.050781 1.484375 -2.125 C 1.398438 -2.207031 1.269531 -2.25 1.09375 -2.25 L 0.609375 -2.25 Z M 0.609375 -1.296875 "/></g></g></g><g fill="#5ce1e6" fill-opacity="1"><g transform="translate(56.302384, 51.411682)"><g><path d="M 0.609375 -2.53125 L 0.609375 0 L 0.28125 0 L 0.28125 -2.53125 Z M 0.609375 -2.53125 "/></g></g></g><g fill="#5ce1e6" fill-opacity="1"><g transform="translate(58.28344, 51.411682)"><g><path d="M 2.265625 0 L 1.9375 0 L 0.609375 -2.015625 L 0.609375 0 L 0.28125 0 L 0.28125 -2.53125 L 0.609375 -2.53125 L 1.9375 -0.515625 L 1.9375 -2.53125 L 2.265625 -2.53125 Z M 2.265625 0 "/></g></g></g><g fill="#5ce1e6" fill-opacity="1"><g transform="translate(61.922354, 51.411682)"><g><path d="M 2.1875 -1.796875 C 2.125 -1.941406 2.023438 -2.054688 1.890625 -2.140625 C 1.753906 -2.222656 1.597656 -2.265625 1.421875 -2.265625 C 1.242188 -2.265625 1.082031 -2.222656 0.9375 -2.140625 C 0.800781 -2.054688 0.691406 -1.9375 0.609375 -1.78125 C 0.535156 -1.632812 0.5 -1.460938 0.5 -1.265625 C 0.5 -1.066406 0.535156 -0.890625 0.609375 -0.734375 C 0.691406 -0.585938 0.800781 -0.472656 0.9375 -0.390625 C 1.082031 -0.316406 1.242188 -0.28125 1.421875 -0.28125 C 1.671875 -0.28125 1.875 -0.351562 2.03125 -0.5 C 2.1875 -0.644531 2.28125 -0.84375 2.3125 -1.09375 L 1.3125 -1.09375 L 1.3125 -1.359375 L 2.671875 -1.359375 L 2.671875 -1.109375 C 2.648438 -0.898438 2.582031 -0.707031 2.46875 -0.53125 C 2.351562 -0.363281 2.207031 -0.226562 2.03125 -0.125 C 1.851562 -0.03125 1.648438 0.015625 1.421875 0.015625 C 1.191406 0.015625 0.976562 -0.0351562 0.78125 -0.140625 C 0.59375 -0.253906 0.441406 -0.40625 0.328125 -0.59375 C 0.210938 -0.789062 0.15625 -1.015625 0.15625 -1.265625 C 0.15625 -1.515625 0.210938 -1.734375 0.328125 -1.921875 C 0.441406 -2.117188 0.59375 -2.273438 0.78125 -2.390625 C 0.976562 -2.503906 1.191406 -2.5625 1.421875 -2.5625 C 1.691406 -2.5625 1.929688 -2.492188 2.140625 -2.359375 C 2.347656 -2.222656 2.5 -2.035156 2.59375 -1.796875 Z M 2.1875 -1.796875 "/></g></g></g><g fill="#1ed7fe" fill-opacity="1"><g transform="translate(42.225987, 47.302306)"><g><path d="M 0.734375 0 L 0.734375 -3.953125 L 5.46875 -3.953125 L 5.46875 0 Z M 0.734375 0 "/></g></g></g><g fill="#ffffff" fill-opacity="1"><g transform="translate(46.753757, 47.302306)"><g><path d="M 0.734375 0 L 0.734375 -3.953125 L 5.46875 -3.953125 L 5.46875 0 Z M 0.734375 0 "/></g></g></g></svg>